<?xml version="1.0" standalone="no"?>
<!DOCTYPE svg PUBLIC "-//W3C//DTD SVG 1.1//EN" "http://www.w3.org/Graphics/SVG/1.1/DTD/svg11.dtd" >
<svg xmlns="http://www.w3.org/2000/svg">
<metadata>
This is a custom SVG webfont generated by Font Squirrel.
Copyright   : Copyright 2011 Adobe Systems Incorporated All rights reserved
</metadata>
<defs>
<font id="colaborativaMediumItalic" horiz-adv-x="722" >
<font-face units-per-em="2048" ascent="1638" descent="-410" />
<missing-glyph horiz-adv-x="428" />
<glyph unicode=" "  horiz-adv-x="428" />
<glyph unicode="&#x09;" horiz-adv-x="428" />
<glyph unicode="&#xa0;" horiz-adv-x="428" />
<glyph unicode="!" horiz-adv-x="501" d="M82 102.5q0 49.5 35 85t84 35.5t82.5 -35.5t33.5 -85t-33.5 -84t-82.5 -34.5t-84 34.5t-35 84zM215 358l158 988h182l-270 -988h-70z" />
<glyph unicode="&#x22;" horiz-adv-x="673" d="M190 860l43 397q6 55 36 85t69 30q43 0 70.5 -27.5t27.5 -68.5q0 -25 -14 -57l-174 -359h-58zM508 860l43 397q6 55 35.5 85t68.5 30q43 0 71 -27.5t28 -68.5q0 -25 -15 -57l-174 -359h-57z" />
<glyph unicode="#" horiz-adv-x="1120" d="M55 262l31 121h193l77 285h-204l28 120h211l70 252h127l-70 -252h262l70 252h129l-70 -252h191l-31 -120h-195l-77 -285h207l-29 -121h-213l-72 -262h-129l72 262h-260l-72 -262h-129l72 262h-189zM401 381h269l80 291h-269z" />
<glyph unicode="$" horiz-adv-x="989" d="M59 250q0 49 29 83t74 34q41 0 67.5 -28t26.5 -63q0 -45 -39 -79q35 -47 137 -74l109 360q-78 35 -124 63.5t-86 85t-40 128.5q0 119 106.5 203t270.5 84q6 0 19.5 -1.5t21.5 -1.5l41 142l106 -29l-41 -131q98 -29 159.5 -86t61.5 -125q0 -53 -28.5 -84t-71.5 -31 q-39 0 -65.5 27t-26.5 66q0 43 33 77q-25 29 -105 48l-102 -338q61 -31 99 -52.5t83 -57.5t66.5 -81t21.5 -98q0 -133 -107.5 -216t-271.5 -83q-23 0 -63 4l-64 -213l-104 29q6 23 29.5 99.5t31.5 104.5q-111 33 -182.5 97.5t-71.5 136.5zM362 776q0 -84 142 -155 q14 51 52 171.5t42 137.5h-12q-98 0 -161 -41t-63 -113zM451 109h24q102 0 170 43t68 120q0 55 -42 94.5t-120 75.5z" />
<glyph unicode="%" horiz-adv-x="1288" d="M80 61l555 494l557 510l63 -74l-561 -499l-551 -504zM137 768q0 115 79 203t194 88q96 0 153.5 -60.5t57.5 -154.5q0 -115 -80 -203t-195 -88q-94 0 -151.5 61.5t-57.5 153.5zM244 766q0 -53 28.5 -87t77.5 -34q63 0 113.5 60.5t50.5 140.5q0 53 -29.5 87t-78.5 34 q-61 0 -111.5 -59.5t-50.5 -141.5zM702 199q0 115 79 202.5t194 87.5q96 0 153.5 -60t57.5 -155q0 -115 -79 -202.5t-194 -87.5q-96 0 -153.5 60.5t-57.5 154.5zM809 197q0 -53 29.5 -87t79.5 -34q61 0 111 60.5t50 139.5q0 53 -29.5 87t-78.5 34q-61 0 -111.5 -60 t-50.5 -140z" />
<glyph unicode="&#x26;" horiz-adv-x="1249" d="M23 283q0 264 368 422q-74 123 -74 241q0 147 99.5 245.5t247.5 98.5q125 0 204.5 -75.5t79.5 -178.5q0 -129 -97 -215t-280 -166q4 -6 68 -84l154 -184q92 131 161.5 189.5t155.5 58.5q59 0 96 -34t37 -79q0 -43 -29.5 -72.5t-70.5 -29.5q-70 0 -92 67q-8 -2 -16.5 -7 t-17.5 -12t-18 -15l-19 -21q-11 -12 -18 -21l-21 -27l-21 -28q-8 -10 -22.5 -30.5t-23.5 -30.5l203 -238l-96 -84l-188 228q-199 -227 -428 -228q-156 0 -249 88.5t-93 221.5zM174 295q0 -86 54.5 -140.5t150.5 -54.5q170 0 332 193l-172 211l-84 106q-143 -68 -212 -139.5 t-69 -175.5zM455 950q0 -113 55 -202q152 66 224.5 131t72.5 151q0 57 -42 100.5t-112 43.5q-88 0 -143 -68t-55 -156z" />
<glyph unicode="'" horiz-adv-x="358" d="M190 860l43 397q6 55 36 85t69 30q43 0 70.5 -27.5t27.5 -68.5q0 -25 -14 -57l-174 -359h-58z" />
<glyph unicode="(" horiz-adv-x="747" d="M154 381q0 379 208.5 686t548.5 471l58 -106q-309 -162 -486.5 -442.5t-177.5 -610.5q0 -217 91 -406.5t253 -332.5l-80 -93q-190 154 -302.5 366t-112.5 468z" />
<glyph unicode=")" horiz-adv-x="765" d="M-129 -348q311 162 487.5 442.5t176.5 610.5q0 434 -342 739l77 94q190 -154 304 -367t114 -469q0 -379 -209 -685t-549 -470z" />
<glyph unicode="*" horiz-adv-x="829" d="M233 1223q0 31 21.5 52t54.5 21t70 -32l156 -142l-5 211q-2 45 19.5 73t54.5 28q45 0 65.5 -35t-3.5 -94l-88 -191l200 66q18 8 45 8q33 0 54.5 -20.5t21.5 -51.5q0 -39 -30.5 -59.5t-77.5 -14.5l-207 25l127 -170q25 -33 24 -72q0 -27 -23.5 -47t-49.5 -20 q-29 0 -51.5 23.5t-28.5 58.5l-41 209l-117 -177q-31 -47 -80 -47q-31 0 -51.5 20.5t-20.5 51.5q0 49 56 80l184 104l-203 62q-76 23 -76 80z" />
<glyph unicode="+" horiz-adv-x="858" d="M104 492l31 124h275l63 271h129l-63 -271h276l-29 -124h-276l-70 -299h-129l70 299h-277z" />
<glyph unicode="," horiz-adv-x="421" d="M-119 -233q115 57 178.5 124.5t69.5 112.5q-41 12 -64.5 46t-23.5 67q0 51 36 88t89 37q55 0 92 -40t37 -104q0 -109 -101.5 -218t-281.5 -173z" />
<glyph unicode="-" horiz-adv-x="598" d="M84 498l35 143h436l-31 -143h-440z" />
<glyph unicode="." horiz-adv-x="421" d="M41 112.5q0 53.5 37 91.5t90 38q51 0 88 -38t37 -91.5t-37 -91t-88 -37.5q-53 0 -90 37.5t-37 91z" />
<glyph unicode="/" horiz-adv-x="772" d="M-199 -362l1059 1880l117 -66l-1059 -1880z" />
<glyph unicode="0" horiz-adv-x="1163" d="M113 449q0 242 156.5 424t389.5 182q199 0 319 -135.5t120 -331.5q0 -240 -157 -422t-390 -182q-201 0 -319.5 133t-118.5 332zM262 451q0 -145 83 -242.5t208 -97.5q168 0 280.5 141t112.5 334q0 147 -83 244.5t-208 97.5q-168 0 -280.5 -141t-112.5 -336z" />
<glyph unicode="1" horiz-adv-x="800" d="M12 0l27 123h246l176 766l-232 -58l-4 130l353 90l59 -27l-209 -901h244l-29 -123h-631z" />
<glyph unicode="2" horiz-adv-x="1021" d="M0 82q61 141 191.5 240.5t320.5 189.5q154 74 228.5 131t74.5 135q0 66 -62.5 110t-172.5 44q-145 0 -222 -82q41 -23 41 -76q0 -41 -28.5 -70.5t-69.5 -29.5q-43 0 -74.5 31.5t-31.5 78.5q0 104 114.5 188.5t280.5 84.5q170 0 272.5 -79t102.5 -192q0 -68 -32 -124 t-96.5 -103t-122 -78.5t-149.5 -74.5q-174 -82 -257 -141.5t-132 -143.5h541l41 176h127l-70 -297h-797z" />
<glyph unicode="3" horiz-adv-x="1001" d="M-18 23q0 53 30.5 87.5t77.5 34.5q41 0 67.5 -26.5t26.5 -63.5q0 -25 -16 -50t-41 -34q18 -39 90 -71.5t180 -32.5q133 0 217 72.5t84 179.5q0 109 -89 178.5t-232 69.5h-45l28 120h48q176 0 286.5 70t110.5 182q0 88 -67.5 140.5t-182.5 52.5q-141 0 -211 -62 q47 -27 47 -73q0 -39 -28.5 -67t-69.5 -28t-72 31t-31 80q0 98 112 171t257 73q180 0 286.5 -86t106.5 -219q0 -131 -95 -217t-261 -115q123 -41 186.5 -121t63.5 -180q0 -158 -131 -267.5t-324 -109.5q-162 0 -285.5 82t-123.5 199z" />
<glyph unicode="4" horiz-adv-x="1110" d="M8 180l850 883l94 -84l-710 -739h395l68 290l155 56l-80 -346h228l-29 -121h-225l-84 -365h-144l84 365h-587z" />
<glyph unicode="5" horiz-adv-x="1001" d="M0 -23q0 49 30.5 83t75.5 34q41 0 71 -27.5t30 -68.5q0 -43 -31 -64q51 -59 197 -59q152 0 249 93t97 229q0 111 -75 172t-200 61q-119 0 -229 -57l-74 49l205 618h635l-31 -135h-522l-125 -383q76 35 186 35q164 0 270.5 -95t106.5 -253q0 -186 -144 -323.5t-355 -137.5 q-154 0 -260.5 69.5t-106.5 159.5z" />
<glyph unicode="6" horiz-adv-x="1095" d="M115 440q0 197 77.5 394.5t219.5 328.5q162 147 368 148q129 0 219.5 -60.5t90.5 -144.5q0 -49 -29 -82t-76 -33q-41 0 -69.5 26.5t-28.5 67.5q0 39 28 62q-43 43 -145 43q-152 0 -278 -121q-78 -74 -141.5 -197.5t-88.5 -255.5q55 82 150.5 141.5t222.5 59.5 q166 0 267.5 -102.5t101.5 -257.5q0 -190 -141.5 -331.5t-342.5 -141.5q-174 0 -289 114q-116 117 -116 342zM260 367q0 -111 68 -179q74 -78 198 -77q135 0 231.5 100t96.5 233q0 113 -65.5 180.5t-182.5 67.5q-147 0 -246.5 -98t-99.5 -227z" />
<glyph unicode="7" horiz-adv-x="999" d="M76 -178l764 1100h-529l-51 -205h-133l76 323h803l32 -63l-848 -1229z" />
<glyph unicode="8" horiz-adv-x="1044" d="M84 322q0 135 87 229t232 133q-162 92 -161 268q0 141 121.5 249t295.5 108q168 0 272.5 -94.5t104.5 -233.5q0 -123 -75.5 -211t-208.5 -125q190 -96 190 -285q0 -152 -132 -264t-327 -112q-174 0 -286.5 99.5t-112.5 238.5zM227 336q0 -100 76 -163.5t186 -63.5 q135 0 220.5 76.5t85.5 187.5q0 102 -76 168.5t-187 66.5q-133 0 -219 -80.5t-86 -191.5zM385 936q0 -90 64.5 -152.5t164.5 -62.5q119 0 199 71.5t80 178.5q0 92 -65.5 153.5t-172.5 61.5q-117 0 -193.5 -72t-76.5 -178z" />
<glyph unicode="9" horiz-adv-x="1095" d="M47 -53q0 49 28.5 81.5t76.5 32.5q41 0 69.5 -26.5t28.5 -67.5q0 -39 -29 -61q47 -43 150 -43q141 0 270 117q80 74 143.5 198.5t85.5 249.5q-51 -82 -148 -142.5t-224 -60.5q-166 0 -267.5 101.5t-101.5 257.5q0 193 141.5 333t343.5 140q176 0 287 -115 q117 -117 117 -340q0 -199 -72 -383t-192 -305q-172 -172 -398 -172q-129 0 -219 60.5t-90 144.5zM279 596q0 -111 65.5 -178.5t181.5 -67.5q147 0 246.5 97.5t99.5 226.5q0 113 -65 180q-70 76 -199 76q-135 0 -232 -100.5t-97 -233.5z" />
<glyph unicode=":" horiz-adv-x="473" d="M68 110.5q0 53.5 36.5 90.5t88 37t88 -37t36.5 -90.5t-36.5 -90t-88 -36.5t-88 36.5t-36.5 90zM190 649q0 53 36 90t89.5 37t89 -37t35.5 -90t-36.5 -90t-88 -37t-88.5 37t-37 90z" />
<glyph unicode=";" horiz-adv-x="473" d="M-92 -231q115 57 178.5 123.5t69.5 111.5q-41 12 -64.5 46t-23.5 67q0 49 35.5 85t86.5 36q53 0 91 -40t38 -102q0 -106 -100 -214.5t-280 -172.5zM190 649q0 53 36 90t89.5 37t89 -37t35.5 -90t-36.5 -90t-88 -37t-88.5 37t-37 90z" />
<glyph unicode="&#x3c;" horiz-adv-x="872" d="M113 510l16 68l586 342l61 -99l-493 -289l346 -276l-80 -94z" />
<glyph unicode="=" horiz-adv-x="858" d="M104 313l29 127h612l-28 -127h-613zM182 641l29 127h612l-28 -127h-613z" />
<glyph unicode="&#x3e;" horiz-adv-x="837" d="M115 264l493 289l-346 278l80 95l436 -348l-16 -68l-584 -342z" />
<glyph unicode="?" horiz-adv-x="925" d="M145 102.5q0 49.5 35 85t84 35.5t83 -35.5t34 -85t-34 -84t-83 -34.5t-84 34.5t-35 84zM229 1087q0 117 118 201t265 84q164 0 272.5 -91t108.5 -243q0 -174 -145.5 -305t-403.5 -160l-77 -213h-97l58 324q254 10 383 110.5t129 235.5q0 100 -67.5 154.5t-174.5 54.5 q-80 0 -138.5 -26.5t-72.5 -61.5q51 -31 51 -84q0 -41 -30.5 -69.5t-71.5 -28.5q-45 0 -76 33.5t-31 84.5z" />
<glyph unicode="@" horiz-adv-x="1648" d="M92 264q0 408 259 694.5t616 286.5q270 0 433 -161.5t163 -426.5q0 -244 -116 -413.5t-282 -169.5q-94 0 -143 50t-45 122q-45 -80 -117 -126t-153 -46q-111 0 -181.5 77.5t-70.5 206.5q0 178 111.5 310.5t262.5 132.5q88 0 144.5 -47t77.5 -121l45 160h131l-115 -459 q-41 -162 73.5 -162t198.5 146.5t84 338.5q0 219 -136 360.5t-365 141.5q-322 0 -551.5 -262t-229.5 -635q0 -229 140.5 -382.5t365.5 -153.5q174 0 328 81l39 -73q-170 -94 -369 -94q-266 0 -432 176t-166 448zM602 371q0 -80 40 -128t116 -48q106 0 183 94t77 213 q0 82 -45 128t-125 46q-102 0 -174 -91t-72 -214z" />
<glyph unicode="A" horiz-adv-x="1443" d="M-55 0l32 135h123l643 1079h-159l30 134h619l-31 -134h-153l143 -1079h143l-32 -135h-441l31 133h149l-41 332h-548l-197 -332h178l-33 -133h-456zM530 596h453l-80 629z" />
<glyph unicode="B" horiz-adv-x="1228" d="M6 0l33 135h162l250 1077h-183l31 136h475q168 0 275 -58q156 -86 155 -260q0 -133 -96 -227t-244 -117q106 -29 177 -106.5t71 -182.5q0 -160 -119 -266q-92 -84 -243 -115q-88 -16 -181 -16h-563zM352 133h238q76 0 141 17q98 25 158 83q66 66 65 168q0 100 -88 165 t-250 65h-149zM496 756h157q180 0 288 68.5t108 193.5q0 111 -105 162q-74 35 -192 34h-150z" />
<glyph unicode="C" horiz-adv-x="1404" d="M147 569q0 324 225.5 563.5t536.5 239.5q217 0 350.5 -107.5t133.5 -222.5q0 -66 -36 -107.5t-87 -41.5q-49 0 -79 29.5t-30 72.5q0 61 60 97q-18 55 -103.5 99t-214.5 44q-252 0 -425 -200.5t-173 -450.5q0 -219 119 -344t315 -125q229 0 422 188l90 -94 q-227 -233 -526 -234q-246 0 -412 160t-166 434z" />
<glyph unicode="D" horiz-adv-x="1449" d="M6 0l33 135h162l250 1077h-183l31 136h428q354 0 543 -189q141 -145 141 -373q0 -319 -211 -530q-254 -256 -711 -256h-483zM352 135h162q360 0 561 201q176 176 176 444q0 178 -108 287q-145 145 -430 145h-111z" />
<glyph unicode="E" horiz-adv-x="1193" d="M6 0l33 135h162l250 1077h-183l31 136h981l-80 -330h-145l45 196h-498l-106 -462h432l-29 -131h-434l-113 -488h500l47 197h145l-75 -330h-963z" />
<glyph unicode="F" horiz-adv-x="1150" d="M6 0l33 135h162l250 1077h-183l31 136h963l-78 -330h-148l47 196h-481l-113 -487h422l-30 -131h-422l-107 -461h199l-33 -135h-512z" />
<glyph unicode="G" horiz-adv-x="1470" d="M145 530q0 338 233.5 589t567.5 251q258 0 404 -137q78 -78 77 -164q0 -61 -35.5 -99t-85 -38t-79 28.5t-29.5 73.5q0 53 53 90q-6 10 -26 31q-100 78 -285 78q-182 0 -329.5 -100.5t-226.5 -259t-79 -336.5q0 -190 107.5 -306t287.5 -116q225 0 404 137l67 274h-376 l30 129h527l-156 -655h-133l22 131q-188 -152 -419 -151q-223 0 -372 151t-149 399z" />
<glyph unicode="H" horiz-adv-x="1570" d="M6 0l33 135h162l250 1077h-183l31 136h500l-31 -136h-166l-104 -454h731l102 454h-186l33 136h499l-30 -136h-162l-250 -1077h182l-33 -135h-499l30 135h166l117 488h-733l-113 -488h187l-31 -135h-502z" />
<glyph unicode="I" d="M6 0l33 135h180l248 1077h-186l30 136h518l-30 -136h-181l-247 -1077h186l-33 -135h-518z" />
<glyph unicode="J" horiz-adv-x="1146" d="M49 297q0 76 43 125t105 49q43 0 71.5 -27.5t28.5 -66.5q0 -41 -27.5 -69.5t-74.5 -28.5q-4 -72 61.5 -119t171.5 -47q145 0 229 106q68 84 105 248l170 745h-227l32 136h539l-33 -136h-160l-178 -768q-49 -217 -141 -321q-121 -145 -346 -146q-152 0 -260.5 88.5 t-108.5 231.5z" />
<glyph unicode="K" horiz-adv-x="1345" d="M6 0l33 135h162l250 1077h-183l31 136h492l-31 -134h-158l-131 -567l655 567h-174l29 134h510l-31 -136h-147l-539 -454l297 -623h184l-30 -135h-262l-308 666l-223 -189l-80 -342h187l-33 -135h-500z" />
<glyph unicode="L" horiz-adv-x="1124" d="M6 0l33 135h162l250 1077h-183l31 136h512l-31 -136h-178l-250 -1079h459l49 207h146l-78 -340h-922z" />
<glyph unicode="M" horiz-adv-x="1771" d="M0 0l33 135h162l299 1077h-187l31 136h319l226 -922l641 922h323l-30 -136h-168l-201 -1077h186l-32 -135h-496l31 135h161l185 942l-635 -901h-27l-229 901l-248 -942h182l-30 -135h-496z" />
<glyph unicode="N" horiz-adv-x="1540" d="M6 0l33 135h162l250 1077h-183l31 136h309l518 -1031l207 895h-188l33 136h489l-31 -136h-157l-281 -1218h-76l-553 1100l-221 -959h187l-31 -135h-498z" />
<glyph unicode="O" horiz-adv-x="1499" d="M145 555q0 150 57.5 296t155 262t238.5 187.5t299 71.5q264 0 416.5 -162.5t152.5 -416.5q0 -150 -57 -296.5t-154.5 -262t-239 -187.5t-298.5 -72q-264 0 -417 163t-153 417zM303 557q0 -190 109.5 -316t314.5 -126q242 0 411 207.5t169 468.5q0 190 -110 316t-314 126 q-242 0 -411 -208t-169 -468z" />
<glyph unicode="P" horiz-adv-x="1153" d="M6 0l33 135h162l250 1077h-183l31 136h442q88 0 170 -21q141 -37 214 -131t73 -223q0 -205 -151.5 -346.5t-409.5 -141.5q-119 0 -201 4l-84 -354h187l-31 -135h-502zM467 625q70 -6 190 -7q184 0 285.5 100.5t101.5 244.5q0 184 -188 235q-55 14 -131 14h-123z" />
<glyph unicode="Q" horiz-adv-x="1499" d="M145 555q0 150 57.5 296t155 262t238.5 187.5t299 71.5q264 0 416.5 -162.5t152.5 -416.5q0 -279 -178 -516.5t-448 -288.5q43 -74 119.5 -118t166.5 -44q74 0 142 37l47 -121q-98 -49 -195 -49q-143 0 -262 78.5t-188 205.5q-244 14 -383.5 175t-139.5 403zM303 557 q0 -190 109.5 -316t314.5 -126q242 0 411 207.5t169 468.5q0 190 -110 316t-314 126q-242 0 -411 -208t-169 -468z" />
<glyph unicode="R" horiz-adv-x="1234" d="M6 0l33 135h162l250 1077h-183l31 136h414q266 0 393 -123q92 -92 92 -238q0 -154 -102.5 -266.5t-282.5 -153.5l205 -432h158l-31 -135h-236l-245 549q-23 -2 -68 -2q-59 0 -145 4l-99 -416h185l-33 -135h-498zM479 684q70 -6 170 -6q182 0 288.5 84t106.5 217 q0 92 -61 154q-80 80 -274 79h-107z" />
<glyph unicode="S" horiz-adv-x="1128" d="M82 285q0 61 35 101t88 40q45 0 74.5 -30.5t29.5 -69.5q0 -63 -57 -103q35 -47 114.5 -79.5t192.5 -32.5q119 0 203 65.5t84 169.5q0 80 -57.5 138.5t-174.5 125.5q-156 90 -236.5 177t-80.5 219q0 150 123 257t313 107q170 0 291 -83t121 -189q0 -63 -35 -101.5 t-84 -38.5q-45 0 -74.5 31t-29.5 74q0 53 51 90q-72 84 -244 84q-123 0 -198.5 -63.5t-75.5 -157.5q0 -84 58 -141.5t192 -135.5q143 -86 221 -171t78 -212q0 -164 -129.5 -271.5t-325.5 -107.5q-195 0 -331 97.5t-136 210.5z" />
<glyph unicode="T" horiz-adv-x="1284" d="M219 1001l80 347h1112l-80 -347h-145l49 213h-334l-250 -1079h195l-33 -135h-518l31 135h174l248 1079h-334l-49 -213h-146z" />
<glyph unicode="U" horiz-adv-x="1462" d="M248 1212l31 136h497l-31 -136h-165l-158 -686q-18 -76 -19 -143q0 -127 73 -198.5t224 -71.5q150 0 244 91t129 247l174 761h-186l31 136h497l-30 -136h-162l-178 -780q-104 -455 -535 -455q-207 0 -320.5 108t-113.5 288q0 66 20 162l158 677h-180z" />
<glyph unicode="V" horiz-adv-x="1404" d="M205 1212l33 136h446l-31 -136h-143l145 -981l590 981h-158l31 136h453l-33 -136h-123l-774 -1232h-88l-205 1232h-143z" />
<glyph unicode="W" horiz-adv-x="1937" d="M227 1212l31 136h457l-31 -136h-168l33 -948l528 922h70l133 -926l481 952h-164l33 136h455l-31 -136h-133l-643 -1230h-82l-141 905l-535 -905h-82l-67 1230h-144z" />
<glyph unicode="X" horiz-adv-x="1454" d="M-29 0l31 135h150l555 565l-269 512h-168l31 136h502l-31 -136h-162l199 -428l401 428h-163l32 136h506l-33 -136h-155l-523 -532l289 -545h164l-33 -135h-495l30 135h168l-223 465l-438 -465h174l-33 -135h-506z" />
<glyph unicode="Y" horiz-adv-x="1292" d="M195 1212l32 136h451l-29 -136h-155l180 -555l450 555h-151l33 136h462l-30 -136h-135l-590 -698l-90 -379h190l-29 -135h-530l33 135h182l100 408l-233 669h-141z" />
<glyph unicode="Z" horiz-adv-x="1255" d="M20 74l1084 1147h-649l-49 -213h-144l78 340h993l8 -74l-1083 -1147h682l49 213h144l-80 -340h-1024z" />
<glyph unicode="[" horiz-adv-x="698" d="M12 -410l445 1909h469l-29 -127h-324l-387 -1655h324l-29 -127h-469z" />
<glyph unicode="\" horiz-adv-x="636" d="M225 1493l131 10l136 -1902l-134 -13z" />
<glyph unicode="]" horiz-adv-x="698" d="M-180 -410l30 127h324l387 1655h-325l30 127h467l-442 -1909h-471z" />
<glyph unicode="^" horiz-adv-x="907" d="M211 813l385 301l233 -313l-71 -64l-193 181l-295 -183z" />
<glyph unicode="_" horiz-adv-x="1056" d="M-115 -303l35 137h1108l-31 -137h-1112z" />
<glyph unicode="`" horiz-adv-x="1130" d="M520 1290q0 35 25.5 60.5t60.5 25.5q51 0 94 -65l160 -252l-47 -39l-240 178q-53 39 -53 92z" />
<glyph unicode="a" horiz-adv-x="1146" d="M86 338q0 223 137 387t326 164q104 0 178 -60.5t94 -156.5l56 207h137l-158 -641q-14 -61 -14 -86q0 -63 57 -64q61 0 117 137l71 -24q-70 -215 -219 -215q-74 0 -117.5 44t-43.5 115v21q-135 -182 -312 -182q-137 0 -223 96t-86 258zM238 348q0 -111 53 -175t151 -64 q143 0 241.5 130t98.5 285q0 109 -57 173.5t-162 64.5q-139 0 -232 -125t-93 -289z" />
<glyph unicode="b" horiz-adv-x="1081" d="M59 0l320 1376h-166l31 123h305l-187 -794q127 184 304 184q147 0 237 -99.5t90 -261.5q0 -225 -138 -385.5t-325 -160.5q-106 0 -183 58t-99 155l-51 -195h-138zM285 346q0 -106 61.5 -170.5t169.5 -64.5q137 0 231.5 120.5t94.5 278.5q0 115 -56.5 183.5t-158.5 68.5 q-139 0 -240.5 -130t-101.5 -286z" />
<glyph unicode="c" horiz-adv-x="950" d="M84 360q0 209 148.5 369t351.5 160q143 0 229 -72t86 -162q0 -51 -30.5 -87t-77.5 -36q-35 0 -62 25t-27 68q0 49 41 73q-49 66 -163 66q-137 0 -244 -116t-107 -279q0 -117 72 -188.5t193 -71.5q158 0 290 114l-4 -139q-135 -100 -303 -100q-170 0 -281.5 102 t-111.5 274z" />
<glyph unicode="d" horiz-adv-x="1150" d="M88 338q0 227 136 389t321 162q102 0 178 -59.5t98 -151.5l164 698h-166l31 123h307l-295 -1261q-16 -74 -16 -86q0 -63 57 -64q63 0 119 137l72 -24q-70 -215 -222 -215q-74 0 -116.5 45t-42.5 119v18q-133 -184 -312 -184q-137 0 -225 97t-88 257zM240 350 q0 -111 55 -176t156 -65q141 0 238 128t97 285q0 111 -59 175.5t-166 64.5q-137 0 -229 -124t-92 -288z" />
<glyph unicode="e" horiz-adv-x="974" d="M82 352q0 219 143.5 378t339.5 159q152 0 243 -86t91 -234q0 -84 -33 -176h-641q-2 -14 -2 -43q0 -111 80 -177.5t199 -66.5q137 0 289 80l-31 -139q-129 -63 -287 -63q-162 0 -276.5 99t-114.5 269zM248 504h502q14 37 14 86q0 76 -52.5 125t-152.5 49 q-102 0 -187 -72.5t-124 -187.5z" />
<glyph unicode="f" horiz-adv-x="641" d="M104 0l172 748h-155l31 124h153l66 285q37 166 131 262q90 90 225 90q74 0 117 -33.5t43 -86.5q0 -43 -30 -72t-69 -29q-41 0 -69.5 26.5t-30.5 69.5q-51 -10 -86 -45q-63 -63 -94 -200l-62 -267h228l-31 -124h-225l-172 -748h-142z" />
<glyph unicode="g" horiz-adv-x="1081" d="M25 -209q0 47 27.5 78t72.5 31t71.5 -30t26.5 -71q0 -31 -16 -53q59 -39 164 -39q129 0 207 78q70 72 104 221l41 176q-115 -176 -305 -176q-147 0 -238.5 96.5t-91.5 257.5q0 219 136 374t331 155q111 0 183.5 -60.5t95.5 -150.5l53 201h137l-209 -899 q-45 -188 -133 -277q-113 -113 -311 -113q-86 0 -173 30t-126 69q-47 47 -47 102zM240 369q0 -109 61 -173.5t164 -64.5q141 0 235.5 121t94.5 276q0 109 -61.5 171.5t-168.5 62.5q-139 0 -232 -115.5t-93 -277.5z" />
<glyph unicode="h" horiz-adv-x="1079" d="M59 0l320 1376h-166l31 123h305l-189 -807q127 195 291 195q106 0 176 -66.5t72 -171.5q0 -51 -22 -137l-76 -283q-12 -43 -13 -75q0 -31 16.5 -48.5t43.5 -17.5q63 0 115 137l71 -24q-66 -215 -215 -215q-80 0 -127 45t-47 116q0 39 14 97l78 286q14 55 15 103 q-2 57 -42 94t-104 37q-94 0 -180 -85t-121 -235l-102 -444h-144z" />
<glyph unicode="i" horiz-adv-x="604" d="M117 748l33 124h313l-172 -634q-14 -57 -15 -86q0 -63 60 -64q68 0 119 137l71 -24q-70 -215 -221 -215q-80 0 -126 45t-46 119q0 33 17 94l137 504h-170zM313 1145q0 43 31 73.5t74 30.5q41 0 71.5 -30.5t30.5 -73.5t-30.5 -74t-71.5 -31q-43 0 -74 31t-31 74z" />
<glyph unicode="j" horiz-adv-x="542" d="M-227 -295q0 43 28.5 69.5t67.5 26.5q37 0 63.5 -25.5t26.5 -58.5q47 10 84 52q55 66 94 235l172 744h-176l33 124h313l-203 -884q-49 -219 -143 -314q-86 -82 -209 -82q-66 0 -108.5 33t-42.5 80zM332 1145q0 43 29.5 73.5t72.5 30.5t73 -30.5t30 -73.5t-30 -74t-73 -31 t-72.5 31t-29.5 74z" />
<glyph unicode="k" horiz-adv-x="964" d="M59 0l320 1376h-166l31 123h305l-246 -1055q360 147 426 252q-51 27 -51 84q0 47 30.5 78t75.5 31t75 -32t30 -85q0 -90 -98.5 -180t-262.5 -168l93 -219q33 -78 47 -94q18 -20 47 -21q57 0 96 160l76 -23q-53 -242 -197 -241q-68 0 -115 41q-43 37 -75 116l-99 238 q-70 -31 -120 -51l-78 -330h-144z" />
<glyph unicode="l" horiz-adv-x="569" d="M106 150q0 33 15 90l264 1136h-164l31 123h305l-293 -1259q-14 -57 -14 -86q0 -66 57 -66q66 0 121 137l72 -24q-70 -215 -224 -215q-78 0 -124 45t-46 119z" />
<glyph unicode="m" horiz-adv-x="1619" d="M90 0l189 748h-164l30 124h291l-51 -206q135 221 299 221q98 0 159.5 -59.5t65.5 -159.5q133 219 303 219q98 0 163 -66.5t65 -171.5q0 -63 -23 -137l-82 -283q-12 -41 -12 -75q0 -31 16.5 -48.5t42.5 -17.5q61 0 117 137l72 -24q-68 -215 -219 -215q-78 0 -125 45 t-47 116q0 37 16 99l80 280q16 55 16 107q0 59 -34.5 95t-92.5 36q-88 0 -171 -86t-122 -240l-112 -438h-144l136 524q16 70 16 111q0 55 -36 92t-93 37q-88 0 -172 -86t-123 -238l-111 -440h-143z" />
<glyph unicode="n" horiz-adv-x="1114" d="M90 0l189 748h-164l30 124h291l-49 -206q131 221 307 221q104 0 172 -66.5t68 -171.5q0 -63 -23 -137l-80 -283q-14 -47 -14 -75q0 -31 16.5 -48.5t43.5 -17.5q61 0 116 137l72 -24q-68 -215 -219 -215q-78 0 -125 45t-47 116q0 37 16 99l82 284q14 55 14 103 q0 59 -38.5 95t-102.5 36q-92 0 -176 -85t-123 -235l-113 -444h-143z" />
<glyph unicode="o" horiz-adv-x="1040" d="M84 365q0 209 143.5 366.5t350.5 157.5q174 0 276 -110.5t102 -270.5q0 -209 -143 -366.5t-350 -157.5q-174 0 -276.5 109.5t-102.5 271.5zM229 362q0 -117 68 -185t172 -68q143 0 242.5 117.5t99.5 281.5q0 117 -67.5 186.5t-172.5 69.5q-141 0 -241.5 -118t-100.5 -284 z" />
<glyph unicode="p" horiz-adv-x="1118" d="M-133 -401l31 122h131l245 1027h-165l30 124h293l-41 -182q133 199 316 199q145 0 234 -99.5t89 -261.5q0 -225 -138 -385.5t-327 -160.5q-100 0 -176 57t-108 145l-107 -463h178l-30 -122h-455zM319 346q0 -106 62.5 -170.5t171.5 -64.5q137 0 231.5 120.5t94.5 278.5 q0 115 -56.5 183.5t-158.5 68.5q-139 0 -242 -131t-103 -285z" />
<glyph unicode="q" horiz-adv-x="1081" d="M86 342q0 223 139.5 385t329.5 162q102 0 177 -58.5t99 -148.5l52 190h137l-266 -1151h182l-31 -122h-323l131 559q-127 -174 -307 -174q-145 0 -232.5 98t-87.5 260zM238 352q0 -111 57 -177t158 -66q143 0 241.5 129t98.5 284q0 109 -57.5 174.5t-164.5 65.5 q-139 0 -236 -124t-97 -286z" />
<glyph unicode="r" horiz-adv-x="782" d="M90 0l189 748h-164l30 124h291l-57 -241q174 256 299 256q51 0 85 -31t34 -78q0 -45 -33 -78.5t-78 -33.5q-41 0 -68.5 23.5t-35.5 58.5q-63 -31 -140 -129.5t-110 -231.5l-99 -387h-143z" />
<glyph unicode="s" horiz-adv-x="864" d="M51 207q0 45 27.5 75.5t68.5 30.5q39 0 64 -25.5t25 -60.5q0 -33 -27 -65q12 -12 35 -25q72 -39 174 -39q76 0 126 32t50 89q0 37 -28.5 70t-59.5 50t-92 46q-59 29 -93 47.5t-74 49t-57.5 67.5t-17.5 84q0 109 85 179.5t230 70.5q178 0 269 -95q49 -49 49 -106 q0 -47 -26.5 -75.5t-65.5 -28.5q-37 0 -63.5 24.5t-26.5 61.5q0 27 22 65q-18 12 -31 19q-53 25 -131 24q-76 0 -123 -31.5t-47 -83.5q0 -33 30 -62.5t59.5 -46t97.5 -48.5q115 -53 176 -109.5t61 -146.5q0 -123 -92 -190.5t-233 -67.5q-197 0 -310 112q-51 52 -51 109z" />
<glyph unicode="t" horiz-adv-x="692" d="M119 748l31 124h155l51 205l158 51l-63 -256h266l-31 -124h-266l-123 -500q-12 -57 -12 -76q0 -31 19.5 -50.5t49.5 -19.5q59 0 183 82l53 -75q-156 -125 -275 -125q-78 0 -129 45t-51 121q0 25 17 98l122 500h-155z" />
<glyph unicode="u" horiz-adv-x="1114" d="M106 748l33 124h307l-141 -546q-12 -43 -12 -95q0 -55 36 -90t97 -35q94 0 180 86.5t123 233.5l111 446h143l-158 -634q-16 -70 -16 -86q0 -63 59 -64q61 0 117 137l72 -24q-70 -215 -221 -215q-72 0 -116 45t-44 121q0 8 4 41q-129 -207 -303 -207q-100 0 -166 60 t-66 161q0 57 19 131l106 410h-164z" />
<glyph unicode="v" horiz-adv-x="964" d="M45 748l33 124h254l106 -722q123 137 212 277t116 245q-35 10 -58.5 37.5t-23.5 68.5q0 47 30.5 79t78.5 32q51 0 84.5 -38t33.5 -103q0 -125 -140 -345.5t-347 -431.5h-80l-141 777h-158z" />
<glyph unicode="w" horiz-adv-x="1368" d="M53 748l33 124h252l45 -684l330 578h69l127 -598q231 340 252 508q-35 8 -60.5 35.5t-25.5 68.5q0 45 31 77t76 32q51 0 84.5 -37t33.5 -98q0 -233 -395 -783h-71l-123 568l-344 -568h-80l-74 777h-160z" />
<glyph unicode="x" horiz-adv-x="1081" d="M12 96q0 41 29 71t68 30q68 0 90 -70q51 12 157 160l115 159l-119 302h-174l31 124h235l113 -319l90 133q139 203 264 203q61 0 97 -33t36 -80q0 -39 -29.5 -68.5t-68.5 -29.5q-70 0 -92 67q-45 -10 -139 -143l-105 -147l103 -246q31 -76 49 -98.5t39 -22.5q49 0 92 137 l72 -20q-55 -219 -191 -219q-61 0 -102 37.5t-74 126.5l-74 200l-110 -164q-72 -106 -136.5 -153t-138.5 -47q-57 0 -92 32.5t-35 77.5z" />
<glyph unicode="y" horiz-adv-x="987" d="M-168 -293q0 41 28.5 72t69.5 31q39 0 66 -25t31 -66h4q86 0 334 299l-150 730h-156l31 124h252l127 -729q289 375 326 531q-84 29 -84 110q0 43 30.5 74t75.5 31q53 0 86 -38t33 -103q0 -104 -94 -269.5t-328 -460.5q-203 -252 -321.5 -340t-223.5 -88q-57 0 -97 34 t-40 83z" />
<glyph unicode="z" horiz-adv-x="966" d="M12 57l721 699h-416l-41 -168h-126l69 284h680l41 -75l-696 -674q59 23 129 22q47 0 132 -19.5t122 -19.5q63 0 94 35t65 138l70 -17q-33 -143 -82 -210.5t-156 -67.5q-49 0 -165.5 27.5t-169.5 27.5q-115 0 -217 -53z" />
<glyph unicode="{" horiz-adv-x="690" d="M66 -113q0 150 174 293q129 109 129 170q0 49 -45 88t-140 39h-69l32 139h72q113 0 174.5 49.5t61.5 120.5q0 61 -60 170q-70 127 -69 222q0 147 135 246.5t393 105.5l-16 -105q-188 -12 -281.5 -81.5t-93.5 -159.5q0 -70 65 -193q66 -127 66 -200q0 -100 -66.5 -166 t-187.5 -82q86 -18 129 -71.5t43 -121.5q0 -106 -158 -235q-150 -125 -149 -221q0 -174 248 -232l-27 -100q-176 23 -268 111.5t-92 213.5z" />
<glyph unicode="|" horiz-adv-x="552" d="M213 -410v1909h127v-1909h-127z" />
<glyph unicode="}" horiz-adv-x="690" d="M-115 -436l17 104q188 12 281 82t93 160q0 72 -65.5 194.5t-65.5 200.5q0 100 67 165t187 81q-86 18 -129 71.5t-43 120.5q0 104 158 238q150 125 150 221q0 172 -248 230l26 100q176 -20 268.5 -110.5t92.5 -215.5q0 -143 -174 -293q-129 -106 -129 -170q0 -49 45 -88 t139 -39h70l-33 -139h-72q-113 0 -174 -49t-61 -121q0 -61 59 -170q70 -123 70 -221q0 -147 -135.5 -246.5t-393.5 -105.5z" />
<glyph unicode="~" horiz-adv-x="954" d="M145 430q25 104 89.5 172t136.5 68q86 0 172 -86q59 -57 94 -58q70 0 123 131l98 -34q-31 -111 -93.5 -174.5t-133.5 -63.5q-86 0 -168 82q-59 59 -96 59q-72 0 -125 -131z" />
<glyph unicode="&#xa1;" horiz-adv-x="501" d="M57 0l271 987h69l-157 -987h-183zM295 1243q0 49 33.5 84t83 35t84 -35t34.5 -84t-34.5 -85t-84 -36t-83 36t-33.5 85z" />
<glyph unicode="&#xa2;" horiz-adv-x="970" d="M104 446q0 203 146.5 360t351.5 167l64 213l104 -29l-59 -192q106 -20 171.5 -85t65.5 -139q0 -49 -30.5 -83.5t-77.5 -34.5q-35 0 -61.5 23.5t-26.5 68.5q0 49 43 71q-41 51 -125 64l-197 -657q16 -2 49 -3q178 0 312 117l-5 -137q-135 -100 -323 -100q-43 0 -64 4 l-86 -289l-104 27l88 286q-109 41 -172.5 132t-63.5 216zM250 455q0 -164 131 -232l186 625q-131 -23 -224 -134.5t-93 -258.5z" />
<glyph unicode="&#xa3;" horiz-adv-x="1017" d="M-104 -180q0 57 71.5 93t173.5 30q131 123 154 305h-217l26 117h193q-2 20 -11.5 102t-9.5 131q0 201 110 330t294 129q135 0 225 -71t90 -159q0 -53 -29.5 -87.5t-72.5 -34.5q-37 0 -63.5 26.5t-26.5 65.5q0 47 35 75q-10 23 -59.5 42.5t-98.5 19.5q-131 0 -200.5 -91 t-69.5 -247q0 -45 8 -127t10 -104h356l-28 -117h-330q-16 -193 -164 -311q47 0 158 -37q123 -41 188 -41q111 0 223 90l66 -80q-119 -133 -297 -133q-92 0 -238 55q-125 49 -190 49q-88 -100 -186 -100q-39 0 -64.5 22.5t-25.5 57.5z" />
<glyph unicode="&#xa5;" horiz-adv-x="1013" d="M113 250l24 112h287l27 109h-289l26 113h213l-147 340h-119l27 116h379l-25 -114h-137l153 -369l322 369h-139l28 114h385l-24 -116h-113l-305 -340h203l-27 -113h-291l-24 -109h291l-27 -112h-289l-28 -135h163l-26 -115h-451l27 115h162l30 135h-286z" />
<glyph unicode="&#xa7;" horiz-adv-x="860" d="M78 158q0 37 24.5 62.5t59.5 25.5t57.5 -22.5t22.5 -55.5q0 -29 -17 -45q45 -33 131 -33q61 0 103.5 21.5t42.5 58.5t-41 63.5t-135 69.5q-106 45 -161.5 91t-55.5 118t63.5 121t171.5 67q-86 61 -86 150q0 86 78 146.5t211 60.5q127 0 201.5 -55.5t74.5 -120.5 q0 -37 -23.5 -61.5t-58 -24.5t-57 23.5t-22.5 55.5q0 29 16 46q-43 33 -131 32q-61 0 -104.5 -21.5t-43.5 -58.5q0 -39 41 -65.5t142 -69.5q104 -45 157.5 -90t53.5 -115q0 -147 -232 -194q86 -59 86 -147.5t-77.5 -148.5t-213.5 -60q-131 0 -204.5 54t-73.5 122zM256 530 q0 -18 10 -32.5t40 -31.5l49 -27l69 -31l41 -19q94 20 138 48t44 71q0 35 -41 62.5t-125 62.5l-45 18q-180 -39 -180 -121z" />
<glyph unicode="&#xa8;" horiz-adv-x="1024" d="M395 1184q0 49 34 84t83 35q47 0 81 -35t34 -84t-35 -83t-82 -34q-49 0 -82 34t-33 83zM752 1184q0 49 33.5 84t82.5 35q47 0 81 -35t34 -84t-34 -83t-83 -34q-47 0 -80.5 34t-33.5 83z" />
<glyph unicode="&#xa9;" horiz-adv-x="1239" d="M94 520q0 225 150.5 381t373.5 156q225 0 376 -156t151 -381t-151.5 -380.5t-375 -155.5t-374 155.5t-150.5 380.5zM178 520.5q0 -194.5 126 -329t314.5 -134.5t315.5 135.5t127 327.5q0 195 -127 330t-315.5 135t-314.5 -135t-126 -329.5zM367 526q0 119 79.5 197 t188.5 78q88 0 145.5 -40t57.5 -87q0 -25 -15.5 -42.5t-36 -17.5t-36 14.5t-15.5 37.5q0 16 8 28q-27 35 -108 35q-78 0 -131 -57.5t-53 -141.5t53 -142t139 -58q84 0 156 67l47 -53q-76 -88 -205 -88q-121 0 -197.5 76.5t-76.5 193.5z" />
<glyph unicode="&#xaa;" horiz-adv-x="718" d="M68 610l22 90h563l-22 -90h-563zM127 1042q0 135 85 233.5t198 98.5q61 0 104 -32.5t59 -84.5l29 109h92l-92 -379q-6 -31 -6 -51q0 -33 29 -33q37 0 71 82l49 -22q-41 -133 -139 -134q-100 0 -104 101q-72 -102 -185 -103q-84 0 -137 58.5t-53 156.5zM229 1051 q0 -61 32 -98.5t87 -37.5q82 0 137.5 73t55.5 161q0 61 -33 98t-92 37q-78 0 -132.5 -70.5t-54.5 -162.5z" />
<glyph unicode="&#xab;" horiz-adv-x="989" d="M84 565l438 344l72 -84l-324 -280l187 -256l-84 -70zM479 565l436 344l72 -84l-323 -280l188 -256l-86 -70z" />
<glyph unicode="&#xad;" horiz-adv-x="598" d="M84 498l35 143h436l-31 -143h-440z" />
<glyph unicode="&#xae;" horiz-adv-x="802" d="M182 1053q0 154 105.5 260t259 106t260 -106.5t106.5 -259.5q0 -152 -107.5 -258.5t-258.5 -106.5q-154 0 -259.5 106.5t-105.5 258.5zM256 1053q0 -125 85 -212t206 -87t207 87t86 212q0 127 -85 214t-208 87q-121 0 -206 -87t-85 -214zM408 885v55h38v238h-38v55h139 q61 0 100 -26.5t39 -78.5q0 -66 -65 -94l49 -94h41v-55h-84l-70 131h-47v-76h43v-55h-145zM510 1071h35q74 0 73.5 53.5t-75.5 53.5h-33v-107z" />
<glyph unicode="&#xaf;" horiz-adv-x="1024" d="M358 1096l31 129h615l-27 -129h-619z" />
<glyph unicode="&#xb0;" horiz-adv-x="663" d="M182 1071q0 119 82 211t203 92q102 0 161.5 -64.5t59.5 -158.5q0 -117 -83 -210t-202 -93q-102 0 -161.5 64.5t-59.5 158.5zM287 1075q0 -59 34.5 -96t86.5 -37q72 0 124 62.5t52 142.5q0 59 -35 96t-88 37q-72 0 -123 -63.5t-51 -141.5z" />
<glyph unicode="&#xb1;" horiz-adv-x="858" d="M12 33l29 127h678l-29 -127h-678zM141 600l29 127h276l64 277h129l-64 -277h277l-29 -127h-278l-64 -276h-129l64 276h-275z" />
<glyph unicode="&#xb2;" d="M207 930q47 113 134 190.5t218 147.5q90 47 131 86t41 88q0 45 -36 71.5t-95 26.5q-98 0 -135 -47q20 -27 20 -51q0 -29 -19.5 -49.5t-47.5 -20.5q-31 0 -50.5 21.5t-19.5 56.5q0 70 76 128t184 58q102 0 168 -52t66 -140q0 -80 -60.5 -135.5t-181.5 -120.5 q-199 -106 -258 -217h313l27 116h92l-47 -206h-500z" />
<glyph unicode="&#xb3;" d="M244 1038q0 31 20.5 54.5t49 23.5t47 -18.5t18.5 -46.5q0 -31 -23 -45q33 -45 144 -45q78 0 124 35.5t46 95.5q0 47 -49.5 84.5t-128.5 37.5h-41l22 97h41q94 0 150.5 35.5t56.5 91.5q0 49 -41 75.5t-105 26.5q-66 0 -96 -27q14 -10 15 -32q0 -29 -19.5 -47.5 t-46.5 -18.5q-31 0 -50.5 20.5t-19.5 53.5q0 55 63.5 100t170 45t174.5 -55t68 -131q0 -82 -59.5 -131t-156.5 -60q160 -41 160 -172q0 -100 -83 -157.5t-197 -57.5q-102 0 -178 47t-76 121z" />
<glyph unicode="&#xb4;" horiz-adv-x="1024" d="M438 1079l312 258q45 39 88 39q33 0 56.5 -23.5t23.5 -56.5q0 -61 -76 -98l-369 -168z" />
<glyph unicode="&#xb6;" horiz-adv-x="1179" d="M94 657q0 174 145.5 272.5t366.5 98.5l608 -2l-30 -125h-160l-201 -776h162l-31 -125h-688l31 121h164q68 266 69 266q-205 0 -301 72q-135 42 -135 198zM586 121h112l203 784h-115z" />
<glyph unicode="&#xb7;" horiz-adv-x="421" d="M115 553q0 53 35.5 91t89 38t89.5 -38t36 -91t-36 -90t-89.5 -37t-89 37t-35.5 90z" />
<glyph unicode="&#xb8;" horiz-adv-x="1024" d="M117 -322l41 60q84 -57 192 -57q39 0 62.5 18t23.5 45q0 31 -33.5 49.5t-97.5 7.5l-31 37l119 207l62 -16l-45 -133q78 -8 119.5 -50.5t41.5 -95.5q0 -74 -61 -116t-154 -42q-137 0 -239 86z" />
<glyph unicode="&#xb9;" d="M229 881l23 96h203l125 539l-201 -43l-4 96l280 63l52 -24l-146 -631h199l-21 -96h-510z" />
<glyph unicode="&#xba;" horiz-adv-x="690" d="M90 610l25 90h485l-22 -90h-488zM170 1061q0 127 84 220t211 93q106 0 167.5 -65.5t61.5 -163.5q0 -127 -84 -220.5t-211 -93.5q-106 0 -167.5 66t-61.5 164zM268 1063q0 -66 38 -105.5t97 -39.5q82 0 137.5 65.5t55.5 157.5q0 66 -38 105.5t-99 39.5q-82 0 -136.5 -64.5 t-54.5 -158.5z" />
<glyph unicode="&#xbb;" horiz-adv-x="989" d="M72 301l323 281l-188 258l84 67l289 -346l-437 -344zM465 301l323 281l-186 258l84 67l287 -346l-436 -344z" />
<glyph unicode="&#xbc;" horiz-adv-x="1628" d="M137 573l23 97h202l125 538l-200 -43l-4 97l280 63l51 -25l-145 -630h199l-21 -97h-510zM311 27l553 651l539 655l63 -53l-553 -651l-538 -656zM907 266l488 500l65 -61l-403 -406h221l37 141l106 39l-41 -174h123l-22 -88h-121l-31 -133h96l-20 -84h-328l19 84h129 l32 133h-335z" />
<glyph unicode="&#xbd;" horiz-adv-x="1628" d="M115 573l22 97h203l125 538l-201 -43l-4 97l281 63l51 -25l-146 -630h199l-20 -97h-510zM279 27l552 651l539 655l64 -53l-553 -651l-539 -656zM903 49q47 113 134 190.5t218 147.5q90 47 131 86t41 88q0 45 -35.5 71.5t-95.5 26.5q-98 0 -135 -47q20 -27 21 -51 q0 -29 -19.5 -49t-48.5 -20q-31 0 -50.5 21.5t-19.5 55.5q0 70 76 128.5t185 58.5q102 0 167.5 -52.5t65.5 -140.5q0 -80 -60.5 -135t-181.5 -121q-199 -106 -258 -217h314l26 117h92l-47 -207h-499z" />
<glyph unicode="&#xbe;" horiz-adv-x="1628" d="M168 731q0 31 20.5 54.5t49 23.5t47 -18.5t18.5 -47.5q0 -31 -22 -45q33 -45 143 -45q78 0 124 36t46 95q0 47 -49 85t-129 38h-41l22 97h41q94 0 150.5 35.5t56.5 90.5q0 49 -41 76t-104 27q-66 0 -97 -27q14 -10 15 -32q0 -29 -19.5 -47.5t-46.5 -18.5q-31 0 -50 20.5 t-19 53.5q0 55 63.5 100t170 45t174 -55t67.5 -131q0 -82 -59.5 -131t-155.5 -60q160 -41 159 -172q0 -100 -82.5 -157.5t-197.5 -57.5q-102 0 -178 47t-76 121zM301 27l553 651l539 655l63 -53l-553 -651l-538 -656zM899 266l487 500l66 -61l-403 -406h221l37 141l106 39 l-41 -174h123l-22 -88h-121l-31 -133h96l-20 -84h-328l18 84h130l32 133h-336z" />
<glyph unicode="&#xbf;" horiz-adv-x="925" d="M51 315q0 174 144.5 305.5t404.5 157.5l78 217h98l-59 -327q-254 -8 -383 -108.5t-129 -235.5q0 -100 67.5 -155.5t171.5 -55.5q80 0 139.5 27.5t73.5 62.5q-53 29 -53 82q0 41 31 70.5t72 29.5q47 0 77.5 -34t30.5 -87q0 -117 -117.5 -199.5t-267.5 -82.5 q-164 0 -271.5 90.5t-107.5 242.5zM662 1251q0 49 34.5 84t83.5 35t83 -35t34 -84t-34 -85t-83 -36t-83.5 36t-34.5 85z" />
<glyph unicode="&#xc0;" horiz-adv-x="1443" d="M-55 0l32 135h123l643 1079h-159l30 134h619l-31 -134h-153l143 -1079h143l-32 -135h-441l31 133h149l-41 332h-548l-197 -332h178l-33 -133h-456zM530 596h453l-80 629zM729 1729q0 35 25.5 60.5t60.5 25.5q51 0 94 -66l160 -252l-47 -39l-240 178q-53 40 -53 93z" />
<glyph unicode="&#xc1;" horiz-adv-x="1443" d="M-55 0l32 135h123l643 1079h-159l30 134h619l-31 -134h-153l143 -1079h143l-32 -135h-441l31 133h149l-41 332h-548l-197 -332h178l-33 -133h-456zM530 596h453l-80 629zM868 1518l312 258q45 39 88 39q33 0 56.5 -24t23.5 -56q0 -61 -76 -99l-369 -168z" />
<glyph unicode="&#xc2;" horiz-adv-x="1443" d="M-55 0l32 135h123l643 1079h-159l30 134h619l-31 -134h-153l143 -1079h143l-32 -135h-441l31 133h149l-41 332h-548l-197 -332h178l-33 -133h-456zM530 596h453l-80 629zM657 1542l383 297l232 -311l-70 -62l-190 185l-297 -187z" />
<glyph unicode="&#xc3;" horiz-adv-x="1443" d="M-55 0l32 135h123l643 1079h-159l30 134h619l-31 -134h-153l143 -1079h143l-32 -135h-441l31 133h149l-41 332h-548l-197 -332h178l-33 -133h-456zM530 596h453l-80 629zM629 1513q27 104 91 172t136 68q84 0 168 -84q57 -57 100 -57q74 0 127 129l90 -33 q-25 -104 -90 -172t-135 -68q-88 0 -170 82q-57 59 -100 60q-72 0 -125 -129z" />
<glyph unicode="&#xc4;" horiz-adv-x="1443" d="M-55 0l32 135h123l643 1079h-159l30 134h619l-31 -134h-153l143 -1079h143l-32 -135h-441l31 133h149l-41 332h-548l-197 -332h178l-33 -133h-456zM530 596h453l-80 629zM705 1622q0 49 33.5 84t82.5 35q47 0 81 -35t34 -84t-35 -83t-82 -34q-49 0 -81.5 34t-32.5 83z M1061 1622q0 49 33.5 84t83.5 35q47 0 80.5 -35t33.5 -84t-33.5 -83t-82.5 -34q-47 0 -81 34t-34 83z" />
<glyph unicode="&#xc5;" horiz-adv-x="1443" d="M-55 0l32 135h123l643 1079h-159l30 134h189q-70 51 -70 147q0 88 70.5 162t173.5 74q88 0 138 -54.5t50 -132.5q0 -63 -32.5 -117.5t-83.5 -78.5h184l-31 -134h-153l143 -1079h143l-32 -135h-441l31 133h149l-41 332h-548l-197 -332h178l-33 -133h-456zM530 596h453 l-80 629zM838 1479q0 -43 25.5 -73t64.5 -30q55 0 92 45t37 109q0 43 -24.5 72.5t-65.5 29.5q-55 0 -92 -46t-37 -107z" />
<glyph unicode="&#xc6;" horiz-adv-x="1869" d="M-66 0l33 135h162l805 1077h-176l33 136h1163l-78 -330h-145l45 196h-484l-106 -462h418l-31 -131h-418l-113 -488h484l47 197h145l-76 -330h-948l31 135h164l78 330h-437l-245 -332h184l-31 -133h-504zM625 594h370l146 627h-51z" />
<glyph unicode="&#xc7;" horiz-adv-x="1404" d="M147 569q0 324 225.5 563.5t536.5 239.5q217 0 350.5 -107.5t133.5 -222.5q0 -66 -36 -107.5t-87 -41.5q-49 0 -79 29.5t-30 72.5q0 61 60 97q-18 55 -103.5 99t-214.5 44q-252 0 -425 -200.5t-173 -450.5q0 -219 119 -344t315 -125q229 0 422 188l90 -94 q-227 -233 -526 -234q-18 0 -55 5l-27 -84q78 -8 120 -50.5t42 -95.5q0 -74 -61.5 -116t-153.5 -42q-137 0 -240 86l41 60q84 -57 193 -57q39 0 62.5 18t23.5 45q0 31 -34 49.5t-97 7.5l-31 37l86 152q-199 41 -323 192t-124 387z" />
<glyph unicode="&#xc8;" horiz-adv-x="1193" d="M6 0l33 135h162l250 1077h-183l31 136h981l-80 -330h-145l45 196h-498l-106 -462h432l-29 -131h-434l-113 -488h500l47 197h145l-75 -330h-963zM594 1729q0 35 25.5 60.5t60.5 25.5q51 0 94 -66l160 -252l-47 -39l-240 178q-53 40 -53 93z" />
<glyph unicode="&#xc9;" horiz-adv-x="1193" d="M6 0l33 135h162l250 1077h-183l31 136h981l-80 -330h-145l45 196h-498l-106 -462h432l-29 -131h-434l-113 -488h500l47 197h145l-75 -330h-963zM733 1518l311 258q45 39 89 39q33 0 56 -24t23 -56q0 -61 -75 -99l-369 -168z" />
<glyph unicode="&#xca;" horiz-adv-x="1193" d="M6 0l33 135h162l250 1077h-183l31 136h981l-80 -330h-145l45 196h-498l-106 -462h432l-29 -131h-434l-113 -488h500l47 197h145l-75 -330h-963zM522 1542l383 297l232 -311l-70 -62l-190 185l-297 -187z" />
<glyph unicode="&#xcb;" horiz-adv-x="1193" d="M6 0l33 135h162l250 1077h-183l31 136h981l-80 -330h-145l45 196h-498l-106 -462h432l-29 -131h-434l-113 -488h500l47 197h145l-75 -330h-963zM569 1622q0 49 34 84t83 35q47 0 81 -35t34 -84t-35 -83t-82 -34q-49 0 -82 34t-33 83zM926 1622q0 49 33.5 84t82.5 35 q47 0 81 -35t34 -84t-33.5 -83t-83.5 -34q-47 0 -80.5 34t-33.5 83z" />
<glyph unicode="&#xcc;" d="M6 0l33 135h180l248 1077h-186l30 136h518l-30 -136h-181l-247 -1077h186l-33 -135h-518zM369 1729q0 35 25.5 60.5t60.5 25.5q51 0 94 -66l160 -252l-47 -39l-240 178q-53 40 -53 93z" />
<glyph unicode="&#xcd;" d="M6 0l33 135h180l248 1077h-186l30 136h518l-30 -136h-181l-247 -1077h186l-33 -135h-518zM506 1518l311 258q45 39 88 39q33 0 56.5 -24t23.5 -56q0 -61 -76 -99l-368 -168z" />
<glyph unicode="&#xce;" d="M6 0l33 135h180l248 1077h-186l30 136h518l-30 -136h-181l-247 -1077h186l-33 -135h-518zM297 1542l383 297l231 -311l-69 -62l-191 185l-297 -187z" />
<glyph unicode="&#xcf;" d="M6 0l33 135h180l248 1077h-186l30 136h518l-30 -136h-181l-247 -1077h186l-33 -135h-518zM344 1622q0 49 34 84t83 35q47 0 80.5 -35t33.5 -84t-34.5 -83t-81.5 -34q-49 0 -82 34t-33 83zM700 1622q0 49 34 84t83 35q47 0 81 -35t34 -84t-34 -83t-83 -34q-47 0 -81 34 t-34 83z" />
<glyph unicode="&#xd0;" horiz-adv-x="1449" d="M6 0l33 135h162l112 492h-174l31 127h174l107 458h-183l31 136h428q354 0 543 -189q141 -145 141 -373q0 -319 -211 -530q-254 -256 -711 -256h-483zM352 135h162q360 0 561 201q176 176 176 444q0 178 -108 287q-145 145 -430 145h-111l-106 -458h278l-31 -127h-278z " />
<glyph unicode="&#xd1;" horiz-adv-x="1540" d="M6 0l33 135h162l250 1077h-183l31 136h309l518 -1031l207 895h-188l33 136h489l-31 -136h-157l-281 -1218h-76l-553 1100l-221 -959h187l-31 -135h-498zM674 1513q27 104 91 172t136 68q84 0 168 -84q57 -57 100 -57q74 0 127 129l90 -33q-25 -104 -90 -172t-135 -68 q-88 0 -170 82q-57 59 -100 60q-72 0 -125 -129z" />
<glyph unicode="&#xd2;" horiz-adv-x="1499" d="M145 555q0 150 57.5 296t155 262t238.5 187.5t299 71.5q264 0 416.5 -162.5t152.5 -416.5q0 -150 -57 -296.5t-154.5 -262t-239 -187.5t-298.5 -72q-264 0 -417 163t-153 417zM303 557q0 -190 109.5 -316t314.5 -126q242 0 411 207.5t169 468.5q0 190 -110 316t-314 126 q-242 0 -411 -208t-169 -468zM754 1729q0 35 25.5 60.5t60.5 25.5q51 0 94 -66l160 -252l-47 -39l-240 178q-53 40 -53 93z" />
<glyph unicode="&#xd3;" horiz-adv-x="1499" d="M145 555q0 150 57.5 296t155 262t238.5 187.5t299 71.5q264 0 416.5 -162.5t152.5 -416.5q0 -150 -57 -296.5t-154.5 -262t-239 -187.5t-298.5 -72q-264 0 -417 163t-153 417zM303 557q0 -190 109.5 -316t314.5 -126q242 0 411 207.5t169 468.5q0 190 -110 316t-314 126 q-242 0 -411 -208t-169 -468zM893 1518l311 258q45 39 88 39q33 0 56.5 -24t23.5 -56q0 -61 -76 -99l-368 -168z" />
<glyph unicode="&#xd4;" horiz-adv-x="1499" d="M145 555q0 150 57.5 296t155 262t238.5 187.5t299 71.5q264 0 416.5 -162.5t152.5 -416.5q0 -150 -57 -296.5t-154.5 -262t-239 -187.5t-298.5 -72q-264 0 -417 163t-153 417zM303 557q0 -190 109.5 -316t314.5 -126q242 0 411 207.5t169 468.5q0 190 -110 316t-314 126 q-242 0 -411 -208t-169 -468zM682 1542l383 297l231 -311l-69 -62l-191 185l-297 -187z" />
<glyph unicode="&#xd5;" horiz-adv-x="1499" d="M145 555q0 150 57.5 296t155 262t238.5 187.5t299 71.5q264 0 416.5 -162.5t152.5 -416.5q0 -150 -57 -296.5t-154.5 -262t-239 -187.5t-298.5 -72q-264 0 -417 163t-153 417zM303 557q0 -190 109.5 -316t314.5 -126q242 0 411 207.5t169 468.5q0 190 -110 316t-314 126 q-242 0 -411 -208t-169 -468zM651 1513q27 104 91.5 172t136.5 68q84 0 168 -84q57 -57 100 -57q74 0 127 129l90 -33q-25 -104 -90.5 -172t-134.5 -68q-88 0 -170 82q-57 59 -101 60q-72 0 -125 -129z" />
<glyph unicode="&#xd6;" horiz-adv-x="1499" d="M145 555q0 150 57.5 296t155 262t238.5 187.5t299 71.5q264 0 416.5 -162.5t152.5 -416.5q0 -150 -57 -296.5t-154.5 -262t-239 -187.5t-298.5 -72q-264 0 -417 163t-153 417zM303 557q0 -190 109.5 -316t314.5 -126q242 0 411 207.5t169 468.5q0 190 -110 316t-314 126 q-242 0 -411 -208t-169 -468zM729 1622q0 49 34 84t83 35q47 0 81 -35t34 -84t-35 -83t-82 -34q-49 0 -82 34t-33 83zM1085 1622q0 49 34 84t83 35q47 0 81 -35t34 -84t-34 -83t-83 -34q-47 0 -81 34t-34 83z" />
<glyph unicode="&#xd7;" horiz-adv-x="858" d="M111 350l258 213l-166 223l106 84l166 -221l256 211l80 -100l-258 -213l168 -223l-107 -86l-168 223l-256 -211z" />
<glyph unicode="&#xd8;" horiz-adv-x="1499" d="M20 76l201 174q-72 133 -71 307q0 147 56 293.5t153.5 262.5t238.5 187.5t299 71.5q270 0 424 -174l201 174l84 -96l-211 -184q72 -137 71 -301q0 -201 -95 -387.5t-269 -307.5t-383 -121q-268 0 -422 170l-193 -168zM305 557q0 -121 41 -211l862 752q-115 137 -323 137 q-242 0 -411 -208t-169 -470zM408 246q117 -133 323 -133q242 0 411 207.5t169 470.5q0 109 -41 206z" />
<glyph unicode="&#xd9;" horiz-adv-x="1462" d="M248 1212l31 136h497l-31 -136h-165l-158 -686q-18 -76 -19 -143q0 -127 73 -198.5t224 -71.5q150 0 244 91t129 247l174 761h-186l31 136h497l-30 -136h-162l-178 -780q-104 -455 -535 -455q-207 0 -320.5 108t-113.5 288q0 66 20 162l158 677h-180zM723 1729 q0 35 25.5 60.5t60.5 25.5q51 0 94 -66l160 -252l-47 -39l-240 178q-53 40 -53 93z" />
<glyph unicode="&#xda;" horiz-adv-x="1462" d="M248 1212l31 136h497l-31 -136h-165l-158 -686q-18 -76 -19 -143q0 -127 73 -198.5t224 -71.5q150 0 244 91t129 247l174 761h-186l31 136h497l-30 -136h-162l-178 -780q-104 -455 -535 -455q-207 0 -320.5 108t-113.5 288q0 66 20 162l158 677h-180zM862 1518l312 258 q45 39 88 39q33 0 56 -24t23 -56q0 -61 -75 -99l-369 -168z" />
<glyph unicode="&#xdb;" horiz-adv-x="1462" d="M248 1212l31 136h497l-31 -136h-165l-158 -686q-18 -76 -19 -143q0 -127 73 -198.5t224 -71.5q150 0 244 91t129 247l174 761h-186l31 136h497l-30 -136h-162l-178 -780q-104 -455 -535 -455q-207 0 -320.5 108t-113.5 288q0 66 20 162l158 677h-180zM653 1542l383 297 l232 -311l-70 -62l-190 185l-297 -187z" />
<glyph unicode="&#xdc;" horiz-adv-x="1462" d="M248 1212l31 136h497l-31 -136h-165l-158 -686q-18 -76 -19 -143q0 -127 73 -198.5t224 -71.5q150 0 244 91t129 247l174 761h-186l31 136h497l-30 -136h-162l-178 -780q-104 -455 -535 -455q-207 0 -320.5 108t-113.5 288q0 66 20 162l158 677h-180zM698 1622 q0 49 34 84t83 35q47 0 81 -35t34 -84t-35 -83t-82 -34q-49 0 -82 34t-33 83zM1055 1622q0 49 33.5 84t82.5 35q47 0 81 -35t34 -84t-33.5 -83t-83.5 -34q-47 0 -80.5 34t-33.5 83z" />
<glyph unicode="&#xdd;" horiz-adv-x="1292" d="M195 1212l32 136h451l-29 -136h-155l180 -555l450 555h-151l33 136h462l-30 -136h-135l-590 -698l-90 -379h190l-29 -135h-530l33 135h182l100 408l-233 669h-141zM764 1518l311 258q45 39 88 39q33 0 56.5 -24t23.5 -56q0 -61 -76 -99l-368 -168z" />
<glyph unicode="&#xde;" horiz-adv-x="1171" d="M6 0l33 135h162l250 1077h-183l31 136h502l-33 -134h-166l-33 -147h129q244 0 357 -113q88 -86 88 -229q0 -193 -143.5 -311.5t-391.5 -118.5q-145 0 -217 6l-39 -168h187l-31 -133h-502zM422 430q160 -6 201 -6q180 0 273 81t93 212q0 94 -55 147q-78 74 -256 74h-139z " />
<glyph unicode="&#xdf;" horiz-adv-x="1122" d="M104 0l172 748h-155l31 124h153l60 263q41 178 141 276t254 98q137 0 225 -83t88 -212q0 -117 -53 -188.5t-150 -136.5q-61 -43 -90.5 -77t-29.5 -77q0 -57 122 -170q152 -143 152 -289q0 -125 -83 -207.5t-239 -82.5q-100 0 -180 55t-80 135q0 43 28 74t69 31 q39 0 65.5 -27t26.5 -59q0 -35 -25 -64q8 -12 38 -22.5t63 -10.5q82 0 131 51.5t49 129.5q0 53 -32 97t-97 107q-72 68 -109 124.5t-37 127.5q0 80 40 132.5t116 105.5q55 39 83 63.5t55.5 72.5t27.5 108q0 68 -54.5 116.5t-125.5 48.5q-92 0 -158 -68.5t-94 -195.5 l-256 -1118h-142z" />
<glyph unicode="&#xe0;" horiz-adv-x="1146" d="M86 338q0 223 137 387t326 164q104 0 178 -60.5t94 -156.5l56 207h137l-158 -641q-14 -61 -14 -86q0 -63 57 -64q61 0 117 137l71 -24q-70 -215 -219 -215q-74 0 -117.5 44t-43.5 115v21q-135 -182 -312 -182q-137 0 -223 96t-86 258zM238 348q0 -111 53 -175t151 -64 q143 0 241.5 130t98.5 285q0 109 -57 173.5t-162 64.5q-139 0 -232 -125t-93 -289zM446 1290q0 35 26 60.5t60 25.5q51 0 95 -65l159 -252l-47 -39l-239 178q-54 39 -54 92z" />
<glyph unicode="&#xe1;" horiz-adv-x="1146" d="M86 338q0 223 137 387t326 164q104 0 178 -60.5t94 -156.5l56 207h137l-158 -641q-14 -61 -14 -86q0 -63 57 -64q61 0 117 137l71 -24q-70 -215 -219 -215q-74 0 -117.5 44t-43.5 115v21q-135 -182 -312 -182q-137 0 -223 96t-86 258zM238 348q0 -111 53 -175t151 -64 q143 0 241.5 130t98.5 285q0 109 -57 173.5t-162 64.5q-139 0 -232 -125t-93 -289zM584 1079l311 258q45 39 88 39q33 0 56.5 -23.5t23.5 -56.5q0 -61 -76 -98l-369 -168z" />
<glyph unicode="&#xe2;" horiz-adv-x="1146" d="M86 338q0 223 137 387t326 164q104 0 178 -60.5t94 -156.5l56 207h137l-158 -641q-14 -61 -14 -86q0 -63 57 -64q61 0 117 137l71 -24q-70 -215 -219 -215q-74 0 -117.5 44t-43.5 115v21q-135 -182 -312 -182q-137 0 -223 96t-86 258zM238 348q0 -111 53 -175t151 -64 q143 0 241.5 130t98.5 285q0 109 -57 173.5t-162 64.5q-139 0 -232 -125t-93 -289zM373 1104l383 297l231 -311l-69 -62l-191 184l-297 -186z" />
<glyph unicode="&#xe3;" horiz-adv-x="1146" d="M86 338q0 223 137 387t326 164q104 0 178 -60.5t94 -156.5l56 207h137l-158 -641q-14 -61 -14 -86q0 -63 57 -64q61 0 117 137l71 -24q-70 -215 -219 -215q-74 0 -117.5 44t-43.5 115v21q-135 -182 -312 -182q-137 0 -223 96t-86 258zM238 348q0 -111 53 -175t151 -64 q143 0 241.5 130t98.5 285q0 109 -57 173.5t-162 64.5q-139 0 -232 -125t-93 -289zM342 1075q27 104 91.5 172t135.5 68q84 0 168 -84q57 -57 101 -57q74 0 127 129l90 -33q-25 -104 -90.5 -172t-135.5 -68q-88 0 -170 82q-57 59 -100 59q-72 0 -125 -129z" />
<glyph unicode="&#xe4;" horiz-adv-x="1146" d="M86 338q0 223 137 387t326 164q104 0 178 -60.5t94 -156.5l56 207h137l-158 -641q-14 -61 -14 -86q0 -63 57 -64q61 0 117 137l71 -24q-70 -215 -219 -215q-74 0 -117.5 44t-43.5 115v21q-135 -182 -312 -182q-137 0 -223 96t-86 258zM238 348q0 -111 53 -175t151 -64 q143 0 241.5 130t98.5 285q0 109 -57 173.5t-162 64.5q-139 0 -232 -125t-93 -289zM418 1184q0 49 33.5 84t83.5 35q47 0 80.5 -35t33.5 -84t-34.5 -83t-82.5 -34q-49 0 -81.5 34t-32.5 83zM774 1184q0 49 34 84t83 35q47 0 81 -35t34 -84t-34 -83t-83 -34q-47 0 -81 34 t-34 83z" />
<glyph unicode="&#xe5;" horiz-adv-x="1146" d="M86 338q0 223 137 387t326 164q104 0 178 -60.5t94 -156.5l56 207h137l-158 -641q-14 -61 -14 -86q0 -63 57 -64q61 0 117 137l71 -24q-70 -215 -219 -215q-74 0 -117.5 44t-43.5 115v21q-135 -182 -312 -182q-137 0 -223 96t-86 258zM238 348q0 -111 53 -175t151 -64 q143 0 241.5 130t98.5 285q0 109 -57 173.5t-162 64.5q-139 0 -232 -125t-93 -289zM512 1214q0 104 70.5 182.5t175.5 78.5q88 0 139 -54.5t51 -136.5q0 -106 -71.5 -184t-176.5 -78q-86 0 -137 54t-51 138zM618 1223q0 -43 26 -73t67 -30q55 0 92 46t37 108q0 43 -26 72.5 t-64 29.5q-55 0 -93.5 -45t-38.5 -108z" />
<glyph unicode="&#xe6;" horiz-adv-x="1622" d="M66 201q0 145 124.5 223t341.5 78h216q-4 119 -73 194.5t-186 75.5q-47 0 -73 -8l-27 -14q14 -25 14 -48q0 -37 -26.5 -64.5t-65.5 -27.5q-41 0 -67.5 30t-26.5 73q0 88 107 143q66 33 159 33q287 0 342 -260q61 119 168 189.5t224 70.5q152 0 241.5 -86t89.5 -234 q0 -78 -35 -176h-639q-2 -14 -2 -43q0 -113 80 -178.5t199 -65.5q137 0 287 80l-31 -139q-127 -63 -279 -63q-139 0 -231 71.5t-125 190.5q-59 -119 -176 -190.5t-252 -71.5q-131 0 -204.5 65.5t-73.5 151.5zM205 213q0 -47 40 -77t107 -30q127 0 240 82t143 209h-164 q-366 0 -366 -184zM897 504h502q14 47 14 86q0 76 -52 125t-153 49q-104 0 -189 -72.5t-122 -187.5z" />
<glyph unicode="&#xe7;" horiz-adv-x="950" d="M84 360q0 209 148.5 369t351.5 160q143 0 229 -72t86 -162q0 -51 -30.5 -87t-77.5 -36q-35 0 -62 25t-27 68q0 49 41 73q-49 66 -163 66q-137 0 -244 -116t-107 -279q0 -117 72 -188.5t193 -71.5q158 0 290 114l-4 -139q-135 -100 -303 -100q-8 0 -23.5 1t-21.5 1 l-31 -90q78 -8 120 -50.5t42 -95.5q0 -74 -61.5 -116t-153.5 -42q-137 0 -239 86l41 60q84 -57 192 -57q39 0 62.5 18t23.5 45q0 31 -34 49.5t-97 7.5l-31 37l92 160q-125 31 -199.5 126t-74.5 236z" />
<glyph unicode="&#xe8;" horiz-adv-x="974" d="M82 352q0 219 143.5 378t339.5 159q152 0 243 -86t91 -234q0 -84 -33 -176h-641q-2 -14 -2 -43q0 -111 80 -177.5t199 -66.5q137 0 289 80l-31 -139q-129 -63 -287 -63q-162 0 -276.5 99t-114.5 269zM248 504h502q14 37 14 86q0 76 -52.5 125t-152.5 49 q-102 0 -187 -72.5t-124 -187.5zM395 1290q0 35 25.5 60.5t60.5 25.5q51 0 94 -65l160 -252l-47 -39l-239 178q-54 39 -54 92z" />
<glyph unicode="&#xe9;" horiz-adv-x="974" d="M82 352q0 219 143.5 378t339.5 159q152 0 243 -86t91 -234q0 -84 -33 -176h-641q-2 -14 -2 -43q0 -111 80 -177.5t199 -66.5q137 0 289 80l-31 -139q-129 -63 -287 -63q-162 0 -276.5 99t-114.5 269zM248 504h502q14 37 14 86q0 76 -52.5 125t-152.5 49 q-102 0 -187 -72.5t-124 -187.5zM532 1079l312 258q45 39 88 39q33 0 56.5 -23.5t23.5 -56.5q0 -61 -76 -98l-369 -168z" />
<glyph unicode="&#xea;" horiz-adv-x="974" d="M82 352q0 219 143.5 378t339.5 159q152 0 243 -86t91 -234q0 -84 -33 -176h-641q-2 -14 -2 -43q0 -111 80 -177.5t199 -66.5q137 0 289 80l-31 -139q-129 -63 -287 -63q-162 0 -276.5 99t-114.5 269zM248 504h502q14 37 14 86q0 76 -52.5 125t-152.5 49 q-102 0 -187 -72.5t-124 -187.5zM324 1104l383 297l231 -311l-70 -62l-190 184l-297 -186z" />
<glyph unicode="&#xeb;" horiz-adv-x="974" d="M82 352q0 219 143.5 378t339.5 159q152 0 243 -86t91 -234q0 -84 -33 -176h-641q-2 -14 -2 -43q0 -111 80 -177.5t199 -66.5q137 0 289 80l-31 -139q-129 -63 -287 -63q-162 0 -276.5 99t-114.5 269zM248 504h502q14 37 14 86q0 76 -52.5 125t-152.5 49 q-102 0 -187 -72.5t-124 -187.5zM369 1184q0 49 33.5 84t82.5 35q47 0 81 -35t34 -84t-35 -83t-82 -34q-49 0 -81.5 34t-32.5 83zM725 1184q0 49 34 84t83 35q47 0 80.5 -35t33.5 -84t-33.5 -83t-82.5 -34q-47 0 -81 34t-34 83z" />
<glyph unicode="&#xec;" horiz-adv-x="604" d="M117 748l33 124h313l-172 -634q-14 -57 -15 -86q0 -63 60 -64q68 0 119 137l71 -24q-70 -215 -221 -215q-80 0 -126 45t-46 119q0 33 17 94l137 504h-170zM184 1290q0 35 26 60.5t60 25.5q51 0 95 -65l159 -252l-47 -39l-239 178q-54 39 -54 92z" />
<glyph unicode="&#xed;" horiz-adv-x="604" d="M117 748l33 124h313l-172 -634q-14 -57 -15 -86q0 -63 60 -64q68 0 119 137l71 -24q-70 -215 -221 -215q-80 0 -126 45t-46 119q0 33 17 94l137 504h-170zM324 1079l311 258q45 39 88 39q33 0 56.5 -23.5t23.5 -56.5q0 -61 -76 -98l-369 -168z" />
<glyph unicode="&#xee;" horiz-adv-x="604" d="M113 1104l383 297l231 -311l-70 -62l-190 184l-297 -186zM117 748l33 124h313l-172 -634q-14 -57 -15 -86q0 -63 60 -64q68 0 119 137l71 -24q-70 -215 -221 -215q-80 0 -126 45t-46 119q0 33 17 94l137 504h-170z" />
<glyph unicode="&#xef;" horiz-adv-x="604" d="M117 748l33 124h313l-172 -634q-14 -57 -15 -86q0 -63 60 -64q68 0 119 137l71 -24q-70 -215 -221 -215q-80 0 -126 45t-46 119q0 33 17 94l137 504h-170zM158 1184q0 49 33.5 84t82.5 35q47 0 81 -35t34 -84t-35 -83t-82 -34q-49 0 -81.5 34t-32.5 83zM514 1184 q0 49 34 84t83 35q47 0 80.5 -35t33.5 -84t-33.5 -83t-82.5 -34q-47 0 -81 34t-34 83z" />
<glyph unicode="&#xf0;" horiz-adv-x="1046" d="M76 352q0 193 136 343.5t314 150.5q231 0 299 -205q8 57 9 143q0 223 -103 390l-237 -216l-76 82l246 224q-78 84 -183 114q-25 -76 -94 -75q-41 0 -69.5 27.5t-28.5 72.5q0 41 34.5 72.5t98.5 31.5q178 0 334 -161l182 165l76 -81l-189 -170q135 -207 136 -490 q0 -453 -201 -653q-131 -131 -316 -131q-166 0 -267 104t-101 262zM221 354q0 -111 64.5 -177t167.5 -66q129 0 221 96q106 111 106 268q0 111 -65.5 177.5t-171.5 66.5q-133 0 -227.5 -110t-94.5 -255z" />
<glyph unicode="&#xf1;" horiz-adv-x="1114" d="M90 0l189 748h-164l30 124h291l-49 -206q131 221 307 221q104 0 172 -66.5t68 -171.5q0 -63 -23 -137l-80 -283q-14 -47 -14 -75q0 -31 16.5 -48.5t43.5 -17.5q61 0 116 137l72 -24q-68 -215 -219 -215q-78 0 -125 45t-47 116q0 37 16 99l82 284q14 55 14 103 q0 59 -38.5 95t-102.5 36q-92 0 -176 -85t-123 -235l-113 -444h-143zM356 1075q27 104 91.5 172t136.5 68q84 0 168 -84q57 -57 100 -57q74 0 127 129l90 -33q-25 -104 -90.5 -172t-134.5 -68q-88 0 -170 82q-57 59 -101 59q-72 0 -124 -129z" />
<glyph unicode="&#xf2;" horiz-adv-x="1040" d="M84 365q0 209 143.5 366.5t350.5 157.5q174 0 276 -110.5t102 -270.5q0 -209 -143 -366.5t-350 -157.5q-174 0 -276.5 109.5t-102.5 271.5zM229 362q0 -117 68 -185t172 -68q143 0 242.5 117.5t99.5 281.5q0 117 -67.5 186.5t-172.5 69.5q-141 0 -241.5 -118t-100.5 -284 zM426 1290q0 35 25.5 60.5t60.5 25.5q51 0 94 -65l160 -252l-47 -39l-240 178q-53 39 -53 92z" />
<glyph unicode="&#xf3;" horiz-adv-x="1040" d="M84 365q0 209 143.5 366.5t350.5 157.5q174 0 276 -110.5t102 -270.5q0 -209 -143 -366.5t-350 -157.5q-174 0 -276.5 109.5t-102.5 271.5zM229 362q0 -117 68 -185t172 -68q143 0 242.5 117.5t99.5 281.5q0 117 -67.5 186.5t-172.5 69.5q-141 0 -241.5 -118t-100.5 -284 zM563 1079l311 258q45 39 89 39q33 0 56 -23.5t23 -56.5q0 -61 -75 -98l-369 -168z" />
<glyph unicode="&#xf4;" horiz-adv-x="1040" d="M84 365q0 209 143.5 366.5t350.5 157.5q174 0 276 -110.5t102 -270.5q0 -209 -143 -366.5t-350 -157.5q-174 0 -276.5 109.5t-102.5 271.5zM229 362q0 -117 68 -185t172 -68q143 0 242.5 117.5t99.5 281.5q0 117 -67.5 186.5t-172.5 69.5q-141 0 -241.5 -118t-100.5 -284 zM352 1104l383 297l232 -311l-70 -62l-190 184l-297 -186z" />
<glyph unicode="&#xf5;" horiz-adv-x="1040" d="M84 365q0 209 143.5 366.5t350.5 157.5q174 0 276 -110.5t102 -270.5q0 -209 -143 -366.5t-350 -157.5q-174 0 -276.5 109.5t-102.5 271.5zM229 362q0 -117 68 -185t172 -68q143 0 242.5 117.5t99.5 281.5q0 117 -67.5 186.5t-172.5 69.5q-141 0 -241.5 -118t-100.5 -284 zM324 1075q27 104 91 172t136 68q84 0 168 -84q57 -57 100 -57q74 0 127 129l90 -33q-25 -104 -90 -172t-135 -68q-88 0 -170 82q-57 59 -100 59q-72 0 -125 -129z" />
<glyph unicode="&#xf6;" horiz-adv-x="1040" d="M84 365q0 209 143.5 366.5t350.5 157.5q174 0 276 -110.5t102 -270.5q0 -209 -143 -366.5t-350 -157.5q-174 0 -276.5 109.5t-102.5 271.5zM229 362q0 -117 68 -185t172 -68q143 0 242.5 117.5t99.5 281.5q0 117 -67.5 186.5t-172.5 69.5q-141 0 -241.5 -118t-100.5 -284 zM397 1184q0 49 34 84t83 35q47 0 81 -35t34 -84t-35 -83t-82 -34q-49 0 -82 34t-33 83zM754 1184q0 49 33.5 84t82.5 35q47 0 81 -35t34 -84t-33.5 -83t-83.5 -34q-47 0 -80.5 34t-33.5 83z" />
<glyph unicode="&#xf7;" horiz-adv-x="858" d="M104 492l31 124h680l-29 -124h-682zM295 272q0 41 30.5 72t71.5 31q39 0 69 -31t30 -72t-30 -70.5t-71 -29.5t-70.5 29.5t-29.5 70.5zM424 836q0 41 30.5 71.5t71.5 30.5t71 -30.5t30 -71.5t-30 -72t-71 -31t-71.5 31t-30.5 72z" />
<glyph unicode="&#xf8;" horiz-adv-x="1056" d="M12 47l135 117q-51 92 -51 203q0 209 141.5 365.5t352.5 156.5q162 0 268 -103l137 123l76 -84l-145 -129q47 -88 47 -190q0 -211 -142.5 -366.5t-349.5 -155.5q-160 0 -264 94l-131 -117zM242 365q0 -66 18 -115l502 446q-68 68 -176 68q-143 0 -243.5 -116.5 t-100.5 -282.5zM315 170q68 -61 170 -61q143 0 242.5 116.5t99.5 282.5q0 49 -14 98z" />
<glyph unicode="&#xf9;" horiz-adv-x="1114" d="M106 748l33 124h307l-141 -546q-12 -43 -12 -95q0 -55 36 -90t97 -35q94 0 180 86.5t123 233.5l111 446h143l-158 -634q-16 -70 -16 -86q0 -63 59 -64q61 0 117 137l72 -24q-70 -215 -221 -215q-72 0 -116 45t-44 121q0 8 4 41q-129 -207 -303 -207q-100 0 -166 60 t-66 161q0 57 19 131l106 410h-164zM446 1290q0 35 26 60.5t60 25.5q51 0 95 -65l159 -252l-47 -39l-239 178q-54 39 -54 92z" />
<glyph unicode="&#xfa;" horiz-adv-x="1114" d="M106 748l33 124h307l-141 -546q-12 -43 -12 -95q0 -55 36 -90t97 -35q94 0 180 86.5t123 233.5l111 446h143l-158 -634q-16 -70 -16 -86q0 -63 59 -64q61 0 117 137l72 -24q-70 -215 -221 -215q-72 0 -116 45t-44 121q0 8 4 41q-129 -207 -303 -207q-100 0 -166 60 t-66 161q0 57 19 131l106 410h-164zM584 1079l311 258q45 39 88 39q33 0 56.5 -23.5t23.5 -56.5q0 -61 -76 -98l-369 -168z" />
<glyph unicode="&#xfb;" horiz-adv-x="1114" d="M106 748l33 124h307l-141 -546q-12 -43 -12 -95q0 -55 36 -90t97 -35q94 0 180 86.5t123 233.5l111 446h143l-158 -634q-16 -70 -16 -86q0 -63 59 -64q61 0 117 137l72 -24q-70 -215 -221 -215q-72 0 -116 45t-44 121q0 8 4 41q-129 -207 -303 -207q-100 0 -166 60 t-66 161q0 57 19 131l106 410h-164zM371 1104l383 297l231 -311l-70 -62l-190 184l-297 -186z" />
<glyph unicode="&#xfc;" horiz-adv-x="1114" d="M106 748l33 124h307l-141 -546q-12 -43 -12 -95q0 -55 36 -90t97 -35q94 0 180 86.5t123 233.5l111 446h143l-158 -634q-16 -70 -16 -86q0 -63 59 -64q61 0 117 137l72 -24q-70 -215 -221 -215q-72 0 -116 45t-44 121q0 8 4 41q-129 -207 -303 -207q-100 0 -166 60 t-66 161q0 57 19 131l106 410h-164zM418 1184q0 49 33.5 84t83.5 35q47 0 80.5 -35t33.5 -84t-34.5 -83t-82.5 -34q-49 0 -81.5 34t-32.5 83zM774 1184q0 49 34 84t83 35q47 0 81 -35t34 -84t-34 -83t-83 -34q-47 0 -81 34t-34 83z" />
<glyph unicode="&#xfd;" horiz-adv-x="987" d="M-168 -293q0 41 28.5 72t69.5 31q39 0 66 -25t31 -66h4q86 0 334 299l-150 730h-156l31 124h252l127 -729q289 375 326 531q-84 29 -84 110q0 43 30.5 74t75.5 31q53 0 86 -38t33 -103q0 -104 -94 -269.5t-328 -460.5q-203 -252 -321.5 -340t-223.5 -88q-57 0 -97 34 t-40 83zM524 1079l312 258q45 39 88 39q33 0 56.5 -23.5t23.5 -56.5q0 -61 -76 -98l-369 -168z" />
<glyph unicode="&#xfe;" horiz-adv-x="1081" d="M-170 -401l31 122h131l391 1655h-166l31 123h307l-186 -788q125 178 301 178q145 0 234 -99.5t89 -261.5q0 -225 -138 -385.5t-327 -160.5q-100 0 -179 57t-105 147l-107 -465h178l-30 -122h-455zM283 346q0 -106 62.5 -170.5t170.5 -64.5q137 0 231.5 120.5t94.5 278.5 q0 115 -56.5 183.5t-158.5 68.5q-139 0 -241.5 -131t-102.5 -285z" />
<glyph unicode="&#xff;" horiz-adv-x="987" d="M-168 -293q0 41 28.5 72t69.5 31q39 0 66 -25t31 -66h4q86 0 334 299l-150 730h-156l31 124h252l127 -729q289 375 326 531q-84 29 -84 110q0 43 30.5 74t75.5 31q53 0 86 -38t33 -103q0 -104 -94 -269.5t-328 -460.5q-203 -252 -321.5 -340t-223.5 -88q-57 0 -97 34 t-40 83zM360 1184q0 49 34 84t83 35q47 0 81 -35t34 -84t-35 -83t-82 -34q-49 0 -82 34t-33 83zM717 1184q0 49 33.5 84t83.5 35q47 0 80.5 -35t33.5 -84t-33.5 -83t-83.5 -34q-47 0 -80.5 34t-33.5 83z" />
<glyph unicode="&#x152;" horiz-adv-x="1908" d="M137 561q0 319 211 531q254 256 711 256h934l-78 -330h-146l46 196h-498l-107 -462h432l-30 -131h-432l-113 -488h498l47 197h145l-76 -330h-860q-354 0 -542 188q-142 142 -142 373zM297 567q0 -180 106 -286q145 -145 433 -146h79l248 1077h-129q-360 0 -561 -200 q-176 -177 -176 -445z" />
<glyph unicode="&#x153;" horiz-adv-x="1685" d="M84 365q0 207 142.5 365.5t346.5 158.5q129 0 214 -62.5t120 -171.5q135 233 377 234q150 0 239 -86t89 -234q0 -84 -33 -176h-641q-2 -14 -2 -43q0 -111 80 -177.5t198 -66.5q137 0 289 80l-30 -139q-129 -63 -279 -63q-125 0 -218 62.5t-128 164.5q-145 -227 -387 -227 q-174 0 -275.5 109.5t-101.5 271.5zM229 362q0 -117 69 -185t173 -68q143 0 243.5 117.5t100.5 281.5q0 117 -68.5 186.5t-175.5 69.5q-141 0 -241.5 -118t-100.5 -284zM961 504h501q14 37 15 86q0 76 -51.5 125t-151.5 49q-102 0 -188 -72.5t-125 -187.5z" />
<glyph unicode="&#x178;" horiz-adv-x="1292" d="M195 1212l32 136h451l-29 -136h-155l180 -555l450 555h-151l33 136h462l-30 -136h-135l-590 -698l-90 -379h190l-29 -135h-530l33 135h182l100 408l-233 669h-141zM600 1622q0 49 34 84t83 35q47 0 80.5 -35t33.5 -84t-34.5 -83t-81.5 -34q-49 0 -82 34t-33 83zM956 1622 q0 49 34 84t83 35q47 0 81 -35t34 -84t-34 -83t-83 -34q-47 0 -81 34t-34 83z" />
<glyph unicode="&#x2c6;" horiz-adv-x="1024" d="M352 1104l383 297l232 -311l-70 -62l-190 184l-297 -186z" />
<glyph unicode="&#x2dc;" horiz-adv-x="1024" d="M332 1075q27 104 91 172t136 68q84 0 168 -84q57 -57 100 -57q74 0 127 129l90 -33q-25 -104 -90 -172t-135 -68q-88 0 -170 82q-57 59 -100 59q-72 0 -125 -129z" />
<glyph unicode="&#x2013;" horiz-adv-x="946" d="M63 500l33 139h828l-31 -139h-830z" />
<glyph unicode="&#x2014;" horiz-adv-x="1441" d="M63 500l33 139h1323l-30 -139h-1326z" />
<glyph unicode="&#x2018;" horiz-adv-x="452" d="M197 971q0 109 110.5 226.5t282.5 184.5l31 -59q-117 -68 -177.5 -137.5t-70.5 -116.5q37 -14 59.5 -46t22.5 -67q0 -53 -37 -91t-92.5 -38t-92 40.5t-36.5 103.5z" />
<glyph unicode="&#x2019;" horiz-adv-x="452" d="M129 883q115 66 175.5 135t72.5 117q-84 37 -84 114q0 53 37 91t92 38t92 -40t37 -105q0 -109 -109.5 -225.5t-281.5 -186.5z" />
<glyph unicode="&#x201a;" horiz-adv-x="442" d="M-109 -233q115 57 178.5 124.5t69.5 112.5q-41 12 -64.5 46t-23.5 67q0 51 36 88t89 37q55 0 92 -40t37 -104q0 -109 -101.5 -218t-281.5 -173z" />
<glyph unicode="&#x201c;" horiz-adv-x="856" d="M197 973q0 109 108.5 224.5t280.5 182.5l30 -59q-117 -66 -176 -134.5t-69 -115.5q80 -33 80 -113q0 -53 -36 -90t-89 -37q-55 0 -92 40.5t-37 101.5zM604 973q0 109 108.5 224.5t280.5 182.5l31 -59q-115 -66 -174 -134.5t-72 -115.5q82 -33 82 -113q0 -53 -37 -90 t-90 -37q-55 0 -92 40.5t-37 101.5z" />
<glyph unicode="&#x201d;" horiz-adv-x="856" d="M129 889q115 66 174 134.5t72 115.5q-82 33 -82 112q0 53 36 90t91 37t91 -40t36 -103q0 -109 -108.5 -224.5t-278.5 -181.5zM537 889q115 66 174 134.5t71 115.5q-82 33 -82 112q0 53 36 90t91.5 37t91 -40t35.5 -103q0 -109 -108.5 -224.5t-278.5 -181.5z" />
<glyph unicode="&#x201e;" horiz-adv-x="837" d="M-109 -229q113 55 175.5 122.5t68.5 110.5q-41 12 -63.5 45t-22.5 66q0 49 35 85t86 36q53 0 90 -39t37 -101q0 -106 -99.5 -213.5t-277.5 -171.5zM293 -229q115 55 177 122.5t69 110.5q-41 12 -64.5 45t-23.5 66q0 49 35.5 85t86.5 36q53 0 90 -39t37 -101 q0 -106 -99 -213.5t-277 -171.5z" />
<glyph unicode="&#x2022;" horiz-adv-x="598" d="M135 555q0 86 56.5 146.5t142.5 60.5q84 0 140 -60.5t56 -146.5t-56 -144.5t-140 -58.5q-86 0 -142.5 58.5t-56.5 144.5z" />
<glyph unicode="&#x2026;" horiz-adv-x="1247" d="M14 108.5q0 53.5 36 89t87 35.5t86 -35.5t35 -89t-35 -89t-86 -35.5t-87 35.5t-36 89zM430 108.5q0 53.5 36 89t87 35.5t86 -35.5t35 -89t-35 -89t-86 -35.5t-87 35.5t-36 89zM846 108.5q0 53.5 36 89t87 35.5t86 -35.5t35 -89t-35 -89t-86 -35.5t-87 35.5t-36 89z" />
<glyph unicode="&#x2039;" horiz-adv-x="595" d="M84 565l438 344l72 -84l-324 -280l187 -256l-84 -70z" />
<glyph unicode="&#x203a;" horiz-adv-x="595" d="M72 301l323 281l-188 258l84 67l289 -346l-437 -344z" />
<glyph unicode="&#x20ac;" horiz-adv-x="1204" d="M47 336l27 113h125q0 68 20 145h-131l27 113h143q76 156 221.5 252t319.5 96q172 0 273.5 -87t101.5 -190q0 -57 -33 -96t-84 -39q-39 0 -66.5 26.5t-27.5 71.5q0 23 15 47.5t36 36.5q-51 100 -221 101q-121 0 -222.5 -59.5t-162.5 -161.5h372l-26 -111h-394 q-23 -74 -22 -145h401l-26 -111h-367q29 -113 117 -170t209 -57q174 0 325 118l72 -100q-188 -147 -414 -147q-166 0 -291.5 91t-158.5 263h-158z" />
<glyph unicode="&#x2122;" horiz-adv-x="1320" d="M207 1196l35 152h473l-35 -152h-80l23 84h-117l-88 -367h74l-17 -71h-231l14 71h76l88 367h-119l-20 -84h-76zM655 842l17 71h71l103 363h-76l16 72h170l68 -314l213 314h182l-16 -72h-76l-70 -363h76l-16 -71h-215l14 71h64l63 318l-223 -322h-39l-74 322l-88 -318h66 l-17 -71h-213z" />
<glyph unicode="&#xe000;" horiz-adv-x="890" d="M0 890h890v-890h-890v890z" />
<glyph unicode="&#xfb01;" horiz-adv-x="1142" d="M104 0l172 748h-155l31 124h153l60 256q27 121 100 226q113 156 295 155q96 0 151.5 -42t55.5 -101q0 -47 -28 -76.5t-73 -29.5q-43 0 -69.5 28.5t-26.5 67.5q0 16 2 24q-6 0 -16.5 1t-14.5 1q-98 0 -166 -96q-51 -74 -75 -184l-54 -230h564l-172 -634q-14 -57 -15 -86 q0 -63 60 -64q63 0 118 137l72 -24q-70 -215 -223 -215q-78 0 -124 45t-46 119q0 41 14 94l137 504h-413l-172 -748h-142z" />
<glyph unicode="&#xfb02;" horiz-adv-x="1140" d="M104 0l172 748h-155l31 124h153l76 324q20 96 80 172q113 141 295 141q147 0 223 -112l61 102h88l-294 -1259q-14 -57 -15 -86q0 -66 60 -66q63 0 118 137l72 -24q-70 -215 -221 -215q-80 0 -126 45t-46 119q0 37 14 90l121 508h-393l-172 -748h-142zM446 872h396l61 258 q0 6 2 9q-68 25 -67 94q0 53 41 84q-43 66 -134 65q-104 0 -167 -75q-41 -47 -62 -133z" />
<glyph unicode="&#xfb03;" horiz-adv-x="1697" d="M104 0l172 748h-155l31 124h153l64 275q27 106 80 178q111 139 294 139q70 0 123.5 -30.5t53.5 -90.5q0 -43 -29 -71.5t-68 -28.5q-43 0 -69.5 27.5t-30.5 70.5q-92 -6 -154 -77q-43 -45 -63 -134l-60 -258h416l60 256q29 131 98 226q113 156 297 155q96 0 151.5 -42 t55.5 -101q0 -47 -29 -76.5t-72 -29.5q-45 0 -71.5 28.5t-26.5 67.5q0 16 4 24q-6 0 -16 1t-15 1q-98 0 -165 -96q-53 -78 -78 -184l-54 -230h564l-172 -634q-14 -57 -15 -86q0 -63 60 -64q66 0 121 137l71 -24q-72 -215 -223 -215q-80 0 -126 45t-46 119q0 33 16 94 l138 504h-416l-172 -748h-142l175 748h-416l-172 -748h-142z" />
<glyph unicode="&#xfb04;" horiz-adv-x="1697" d="M104 0l172 748h-155l31 124h153l64 275q27 106 80 178q111 139 294 139q70 0 123.5 -30.5t53.5 -90.5q0 -43 -29 -71.5t-68 -28.5q-43 0 -69.5 27.5t-30.5 70.5q-92 -6 -154 -77q-43 -45 -63 -134l-60 -258h414l76 324q27 102 80 172q113 141 295 141q147 0 225 -112 l61 102h86l-292 -1259q-14 -57 -15 -86q0 -66 60 -66q63 0 118 137l72 -24q-70 -215 -223 -215q-78 0 -124 45t-46 119q0 18 14 90l119 508h-393l-172 -748h-142l172 748h-413l-172 -748h-142zM1001 872h396l61 258v5q2 4 2 6q-66 25 -65 92q0 55 41 84q-49 66 -136 65 q-102 0 -165 -75q-45 -51 -64 -133z" />
</font>
</defs>
</svg>
