<?xml version="1.0" standalone="no"?>
<!DOCTYPE svg PUBLIC "-//W3C//DTD SVG 1.1//EN" "http://www.w3.org/Graphics/SVG/1.1/DTD/svg11.dtd" >
<svg xmlns="http://www.w3.org/2000/svg">
<metadata>
This is a custom SVG webfont generated by Font Squirrel.
Copyright   : Copyright 2011 Adobe Systems Incorporated All rights reserved
</metadata>
<defs>
<font id="colaborativaMedium" horiz-adv-x="1591" >
<font-face units-per-em="2048" ascent="1638" descent="-410" />
<missing-glyph horiz-adv-x="464" />
<glyph unicode=" "  horiz-adv-x="464" />
<glyph unicode="&#x09;" horiz-adv-x="464" />
<glyph unicode="&#xa0;" horiz-adv-x="464" />
<glyph unicode="!" horiz-adv-x="522" d="M143 102.5q0 49.5 34 85t83 35.5t84 -35.5t35 -85t-35 -84t-84 -34.5t-83 34.5t-34 84zM168 1346h184l-53 -973h-78z" />
<glyph unicode="&#x22;" horiz-adv-x="692" d="M74 1227q-12 66 16.5 105.5t79.5 39.5q53 0 82 -40t16 -105l-69 -367h-58zM422 1227q-12 66 16.5 105.5t79.5 39.5q53 0 82 -40t16 -105l-69 -367h-58z" />
<glyph unicode="#" horiz-adv-x="1062" d="M39 262v121h209l45 285h-191v120h209l39 252h129l-39 -252h260l41 252h129l-41 -252h193v-120h-211l-43 -285h190v-121h-208l-41 -262h-129l38 262h-260l-41 -262h-127l39 262h-190zM373 381h268l45 291h-268z" />
<glyph unicode="$" horiz-adv-x="952" d="M78 219q0 41 26.5 69.5t65.5 28.5q43 0 69.5 -25.5t26.5 -64.5q0 -23 -14 -59q41 -37 147 -49l29 364q-143 45 -223 104.5t-80 176.5t96 192.5t248 81.5l12 146l113 -8l-12 -142q115 -14 192.5 -65t77.5 -125q0 -45 -24.5 -72t-63.5 -27q-41 0 -68.5 27t-27.5 68 q0 29 12 53q-39 23 -115 31l-24 -332q152 -47 236.5 -112.5t84.5 -188.5q0 -141 -105.5 -214t-262.5 -77l-17 -217l-112 10l16 213q-127 16 -215 70.5t-88 142.5zM264 772q0 -53 45 -88t133 -63l23 307q-90 -4 -145.5 -45t-55.5 -111zM498 113q98 4 161.5 47t63.5 125 q0 61 -50 100t-147 70z" />
<glyph unicode="%" horiz-adv-x="1323" d="M102 809q0 104 72 177t176 73q102 0 175 -73t73 -177q0 -102 -72.5 -175t-175.5 -73q-104 0 -176 73t-72 175zM193 18q78 78 430 517l421 524l76 -62q-49 -55 -432 -520l-167 -206l-169 -211q-70 -87 -86 -105zM215 809q0 -61 39 -104t96.5 -43t96 43t38.5 104t-38.5 104 t-96 43t-96.5 -43t-39 -104zM727 233.5q0 102.5 71.5 175t174.5 72.5q104 0 176 -72.5t72 -175.5q0 -104 -72 -176.5t-176 -72.5q-102 0 -174 73.5t-72 176zM840 231.5q0 -61.5 37.5 -104.5t95.5 -43q59 0 97 43t38 104.5t-38 104.5t-97 43q-57 0 -95 -43t-38 -104.5z" />
<glyph unicode="&#x26;" horiz-adv-x="1267" d="M59 313q0 119 71 208t210 169q-82 94 -108.5 157.5t-26.5 137.5q0 117 88 211t235 94q127 0 212 -74.5t85 -191.5q0 -98 -65.5 -178t-220.5 -174q43 -45 123 -119l217 -207q59 88 98 201h-117v121h359v-121h-121q-61 -182 -127 -283q150 -141 217 -194l-88 -97l-211 191 q-170 -182 -424 -182q-193 0 -299.5 96t-106.5 235zM209 317q0 -84 67.5 -146t188.5 -62q190 0 332 141l-226 211l-71 68l-82 79q-111 -68 -160 -135.5t-49 -155.5zM350 981q0 -102 109 -229q127 78 174 138t47 134q0 63 -43 105t-109 42q-78 0 -128 -54t-50 -136z" />
<glyph unicode="'" horiz-adv-x="344" d="M74 1227q-12 66 16.5 105.5t79.5 39.5q53 0 82 -40t16 -105l-69 -367h-58z" />
<glyph unicode="(" horiz-adv-x="745" d="M141 532.5q0 317.5 161 583.5t415 414l74 -107q-229 -141 -364.5 -373.5t-135.5 -517.5q0 -281 136 -514t364 -374l-74 -107q-254 145 -415 411.5t-161 584z" />
<glyph unicode=")" horiz-adv-x="745" d="M-45 -356q229 141 364.5 373.5t135.5 515t-136.5 516t-363.5 374.5l74 107q254 -147 414.5 -413.5t160.5 -584t-160.5 -583.5t-414.5 -412z" />
<glyph unicode="*" horiz-adv-x="829" d="M80 1196q12 37 51 45t80 -16l182 -107l-49 207q-10 47 10.5 81t59.5 34q41 0 60.5 -34t8.5 -81l-47 -207l182 107q41 25 80 16.5t52 -45.5q12 -39 -12.5 -69.5t-73.5 -34.5l-213 -19l157 -139q37 -35 41 -73t-28 -60q-35 -25 -70 -10.5t-55 61.5l-82 195l-80 -195 q-18 -47 -54 -61.5t-71 10.5q-33 23 -30 61.5t42 71.5l158 139l-213 19q-49 4 -73.5 34.5t-12.5 69.5z" />
<glyph unicode="+" horiz-adv-x="851" d="M86 492v124h274v279h129v-279h277v-124h-277v-279h-129v279h-274z" />
<glyph unicode="," horiz-adv-x="421" d="M2 -254q178 135 186 252q-43 8 -74.5 43t-31.5 80q0 49 37 84t86 35q57 0 95 -42t38 -118q0 -96 -71.5 -201.5t-225.5 -187.5z" />
<glyph unicode="-" horiz-adv-x="624" d="M72 498v143h481v-143h-481z" />
<glyph unicode="." horiz-adv-x="421" d="M86 112.5q0 53.5 36 91.5t89 38t89 -38t36 -91.5t-36 -91t-89 -37.5t-89 37.5t-36 91z" />
<glyph unicode="/" horiz-adv-x="952" d="M-45 -373l840 1893l125 -56l-840 -1892z" />
<glyph unicode="0" horiz-adv-x="1134" d="M96 520q0 233 132 385t339 152q205 0 339 -152.5t134 -384t-133 -384t-340 -152.5q-205 0 -338 153.5t-133 382.5zM244 520q0 -180 90 -295.5t233 -115.5q145 0 234.5 115.5t89.5 295.5t-89 296t-235 116q-143 0 -233 -116t-90 -296z" />
<glyph unicode="1" horiz-adv-x="837" d="M123 956l332 88h63v-921h242v-123h-631v123h246v766l-219 -55z" />
<glyph unicode="2" horiz-adv-x="1013" d="M76 72q53 131 154.5 224t254.5 191q84 53 125 85t77 81t36 103q0 78 -65.5 127t-176.5 49q-145 0 -213 -82l-6 -10q51 -25 51 -78q0 -41 -28.5 -70.5t-69.5 -29.5q-45 0 -75.5 34.5t-30.5 89.5q0 53 38 113q49 68 140.5 113t201.5 45q176 0 276.5 -88t100.5 -211 q0 -61 -22.5 -113.5t-71.5 -99.5t-94 -79t-121 -79q-229 -139 -301 -266h518v176h127v-297h-807z" />
<glyph unicode="3" horiz-adv-x="1007" d="M72 16q0 51 32.5 87t77.5 36q41 0 67.5 -27.5t26.5 -66.5q0 -59 -51 -84l8 -12q76 -80 248 -80q127 0 209 67.5t82 169.5q0 147 -149 216q-96 45 -232 45h-45v120h51q133 0 236 58q125 74 125 186q0 94 -72 146.5t-190 52.5q-164 0 -222 -78l-6 -8q55 -27 56 -82 q0 -41 -30 -67.5t-69 -26.5q-45 0 -76.5 34.5t-31.5 88.5q0 55 39 112q45 68 136 111t212 43q174 0 285.5 -94.5t111.5 -229.5q0 -76 -47 -144.5t-123 -111.5q-66 -37 -133 -45q68 -12 127 -41q190 -96 190 -285q0 -164 -123.5 -264t-312.5 -100q-121 0 -220 44t-148 116 q-39 55 -39 114z" />
<glyph unicode="4" horiz-adv-x="1052" d="M35 180l659 883l107 -80l-553 -743h401v290l137 56v-346h230v-121h-230v-365h-137v365h-588z" />
<glyph unicode="5" horiz-adv-x="993" d="M86 -29q0 49 30.5 84t76.5 35q41 0 69.5 -26.5t28.5 -67.5q0 -45 -35 -74q0 -2 2 -2q66 -49 203 -49q133 0 216 80t83 205q0 123 -80 198.5t-215 75.5q-145 0 -275 -59l-63 37l76 632h635v-135h-525l-43 -383q96 31 209 31q186 0 307 -109.5t121 -288t-126 -294 t-312 -115.5q-215 0 -324 98q-59 55 -59 127z" />
<glyph unicode="6" horiz-adv-x="1089" d="M106 549q0 377 153 569.5t364 192.5q172 0 264 -97q53 -53 53 -116q0 -53 -33 -87t-76 -34q-45 0 -72.5 28.5t-27.5 71.5q0 41 27 64q-51 45 -148 45q-145 0 -250.5 -151.5t-113.5 -413.5q43 76 133 126t196 50q182 0 302 -114t120 -277q0 -178 -123.5 -301t-314 -123 t-313.5 122q-140 142 -140 445zM262 385q0 -115 82 -197q86 -82 215 -82q131 0 212 84t81 216q0 117 -78 192.5t-205 75.5q-133 0 -220 -86t-87 -203z" />
<glyph unicode="7" horiz-adv-x="962" d="M63 717v323h805l29 -61l-578 -1229l-124 60l522 1112h-522v-205h-132z" />
<glyph unicode="8" horiz-adv-x="1032" d="M90 346q0 109 67.5 195t174.5 125q-96 41 -155.5 124.5t-59.5 165.5q0 154 114.5 253.5t282.5 99.5q170 0 284.5 -99.5t114.5 -253.5q0 -88 -59 -167.5t-158 -122.5q106 -39 176 -126t70 -194q0 -156 -121 -259t-307 -103t-305 103t-119 259zM240 354q0 -104 78.5 -174.5 t195.5 -70.5q119 0 198 70.5t79 174.5q0 106 -79 178t-198 72q-117 0 -195.5 -72t-78.5 -178zM264 950q0 -94 74 -161.5t176 -67.5q104 0 179 67.5t75 161.5q0 100 -72.5 167t-181.5 67q-106 0 -178 -67t-72 -167z" />
<glyph unicode="9" horiz-adv-x="1089" d="M90 633q0 180 124 302t314 122q193 0 312 -119q141 -143 141 -449q0 -375 -156.5 -559t-371.5 -184q-176 0 -269 102q-47 51 -47 113q0 55 32 88t75 33q45 0 73.5 -29.5t28.5 -70.5t-27 -64q51 -45 148 -45q152 0 259.5 143.5t115.5 397.5q-43 -74 -133.5 -121 t-196.5 -47q-182 0 -302 111.5t-120 275.5zM238 633q0 -115 76.5 -188.5t203.5 -73.5q133 0 220 83t87 201q0 115 -82 197q-84 80 -215 80t-210.5 -84t-79.5 -215z" />
<glyph unicode=":" horiz-adv-x="460" d="M106 110.5q0 53.5 37 90.5t88.5 37t88 -37t36.5 -90.5t-36.5 -90t-88 -36.5t-88.5 36.5t-37 90zM106 655.5q0 53.5 37 90t88.5 36.5t88 -36.5t36.5 -90t-36.5 -90.5t-88 -37t-88.5 37t-37 90.5z" />
<glyph unicode=";" horiz-adv-x="460" d="M25 -250q180 133 184 248q-43 8 -74 43t-31 78q0 47 36 82t85 35q57 0 95 -41t38 -115q0 -94 -71.5 -199.5t-223.5 -185.5zM106 655.5q0 53.5 37 90t88.5 36.5t88 -36.5t36.5 -90t-36.5 -90.5t-88 -37t-88.5 37t-37 90.5z" />
<glyph unicode="&#x3c;" horiz-adv-x="796" d="M84 510v68l514 348l68 -99l-418 -284l418 -283l-68 -98z" />
<glyph unicode="=" horiz-adv-x="851" d="M86 313v125h680v-125h-680zM86 643v125h680v-125h-680z" />
<glyph unicode="&#x3e;" horiz-adv-x="796" d="M131 260l418 283l-418 284l70 99l514 -348v-68l-514 -348z" />
<glyph unicode="?" horiz-adv-x="913" d="M43 1081q0 76 51 144q51 66 141.5 106.5t196.5 40.5q190 0 306 -102.5t116 -259.5q0 -139 -100.5 -248t-276.5 -150l-20 -239h-86l-33 329q180 35 272 114t92 190q0 106 -72.5 170.5t-199.5 64.5q-158 0 -223 -88q-8 -12 -10 -18q29 -8 46 -33t17 -53q0 -43 -26.5 -72 t-69.5 -29q-47 0 -84 38t-37 95zM299 102.5q0 49.5 34 85t83 35.5t82.5 -35.5t33.5 -85t-33.5 -84t-82.5 -34.5t-83 34.5t-34 84z" />
<glyph unicode="@" horiz-adv-x="1648" d="M92 264q0 408 259 694.5t616 286.5q270 0 433 -161.5t163 -426.5q0 -244 -116 -413.5t-282 -169.5q-94 0 -143 50t-45 122q-45 -80 -117 -126t-153 -46q-111 0 -181.5 77.5t-70.5 206.5q0 178 111.5 310.5t262.5 132.5q88 0 144.5 -47t77.5 -121l45 160h131l-115 -459 q-41 -162 73.5 -162t198.5 146.5t84 338.5q0 219 -136 360.5t-365 141.5q-322 0 -551.5 -262t-229.5 -635q0 -229 140.5 -382.5t365.5 -153.5q174 0 328 81l39 -73q-170 -94 -369 -94q-266 0 -432 176t-166 448zM602 371q0 -80 40 -128t116 -48q106 0 183 94t77 213 q0 82 -45 128t-125 46q-102 0 -174 -91t-72 -214z" />
<glyph unicode="A" horiz-adv-x="1445" d="M37 0v135h129l403 1079h-153v134h614v-134h-153l403 -1079h129v-135h-451v133h158l-121 332h-551l-120 -332h163v-133h-450zM489 594h461l-229 629z" />
<glyph unicode="B" horiz-adv-x="1239" d="M96 0v135h172v1077h-172v136h541q225 0 339 -97.5t114 -244.5q0 -117 -67 -199t-179 -117q285 -74 284 -321q0 -164 -124.5 -266.5t-341.5 -102.5h-566zM420 133h246q145 0 228 66.5t83 177.5q0 121 -93 184.5t-261 63.5h-203v-492zM420 750h198q156 0 238 65.5t82 175.5 q0 106 -79 164.5t-226 58.5h-213v-464z" />
<glyph unicode="C" horiz-adv-x="1437" d="M115 668q0 305 201.5 504.5t482.5 199.5q207 0 355.5 -103.5t148.5 -228.5q0 -57 -34 -95t-85 -38q-47 0 -80 32t-33 77q0 61 51 82q-33 51 -120 93t-205 42q-227 0 -377 -166t-150 -397q0 -223 151.5 -389t383 -166t418.5 174l90 -109q-205 -205 -508 -205t-496.5 203 t-193.5 490z" />
<glyph unicode="D" horiz-adv-x="1490" d="M96 0v135h172v1077h-172v136h506q352 0 563 -180.5t211 -479.5q0 -311 -206.5 -499.5t-573.5 -188.5h-500zM422 135h192q295 0 451 150.5t156 404.5q0 242 -168 382t-455 140h-176v-1077z" />
<glyph unicode="E" horiz-adv-x="1204" d="M96 0v135h172v1077h-172v136h979v-330h-145v196h-508v-462h440v-131h-440v-488h508v197h147v-330h-981z" />
<glyph unicode="F" horiz-adv-x="1161" d="M96 0v135h172v1077h-172v136h965v-330h-148v196h-491v-487h432v-131h-432v-461h186v-135h-512z" />
<glyph unicode="G" horiz-adv-x="1509" d="M115 664q0 311 204.5 509.5t493.5 198.5q215 0 360.5 -98t145.5 -213q0 -55 -33 -91t-82 -36q-47 0 -78.5 30.5t-31.5 77.5q0 49 34 78q-43 47 -128 80t-191 33q-238 0 -388.5 -163t-150.5 -406.5t150.5 -398t365.5 -154.5t400 129v286h-373v129h522v-655h-145v117 q-186 -141 -420 -142q-268 0 -461.5 190t-193.5 499z" />
<glyph unicode="H" horiz-adv-x="1589" d="M96 0v135h172v1077h-172v136h502v-136h-176v-454h745v454h-176v136h502v-136h-172v-1077h172v-135h-502v135h176v488h-745v-488h176v-135h-502z" />
<glyph unicode="I" horiz-adv-x="712" d="M98 0v135h183v1077h-183v136h516v-136h-182v-1077h182v-135h-516z" />
<glyph unicode="J" horiz-adv-x="1083" d="M61 305q0 70 36 114t91 44q41 0 73 -30t32 -75q0 -35 -20.5 -60.5t-53.5 -33.5q6 -53 66.5 -100t156.5 -47q109 0 179 69q78 78 77 273v753h-206v136h520v-136h-162v-755q0 -252 -119 -371q-111 -111 -289 -111q-158 0 -269.5 96.5t-111.5 233.5z" />
<glyph unicode="K" horiz-adv-x="1382" d="M96 0v135h172v1077h-172v136h502v-134h-176v-587l584 587h-181v134h521v-136h-152l-438 -436l430 -641h170v-135h-269l-444 676l-221 -221v-320h176v-135h-502z" />
<glyph unicode="L" horiz-adv-x="1134" d="M96 0v135h172v1077h-172v136h512v-136h-186v-1079h467v207h145v-340h-938z" />
<glyph unicode="M" horiz-adv-x="1806" d="M86 0v135h176l49 1077h-180v136h328l440 -916l442 916h326v-136h-180l49 -1077h174v-135h-496v135h172l-34 942l-434 -887h-41l-435 887l-32 -942h170v-135h-494z" />
<glyph unicode="N" horiz-adv-x="1564" d="M96 0v135h172v1077h-172v136h305l779 -1026v890h-179v136h490v-136h-166v-1216l-84 -2l-825 1087v-946h176v-135h-496z" />
<glyph unicode="O" d="M115 672q0 299 194.5 499.5t491.5 200.5q291 0 484.5 -200.5t193.5 -495.5q0 -297 -196 -499t-490 -202q-293 0 -485.5 201t-192.5 496zM270 675.5q0 -239.5 148.5 -400t378 -160.5t377 159.5t147.5 397.5q0 240 -147.5 400.5t-377 160.5t-378 -159t-148.5 -398.5z" />
<glyph unicode="P" horiz-adv-x="1189" d="M96 0v135h172v1077h-172v136h518q215 0 356.5 -116t141.5 -308q0 -205 -136 -322t-364 -117q-113 0 -190 4v-354h182v-135h-508zM422 623q82 -4 199 -5q156 0 246.5 82t90.5 222q0 135 -96 212.5t-246 77.5h-194v-589z" />
<glyph unicode="Q" d="M115 672q0 299 194.5 499.5t491.5 200.5q291 0 484.5 -200.5t193.5 -495.5q0 -250 -137.5 -430t-360.5 -230q45 -16 115 -59q82 -53 131 -74.5t108 -21.5q88 0 166 53l70 -123q-96 -76 -230 -76q-66 0 -133 22.5t-108 47.5t-107 69l-88 58q-86 53 -203 74 q-223 35 -370 170q-100 90 -158.5 226t-58.5 290zM270 676q0 -262 170 -422q145 -139 357 -139q229 0 376.5 159.5t147.5 397.5q0 240 -147.5 400.5t-377 160.5t-378 -158.5t-148.5 -398.5z" />
<glyph unicode="R" horiz-adv-x="1265" d="M96 0v135h172v1077h-172v136h512q223 0 356.5 -105.5t133.5 -286.5q0 -135 -79 -230t-210 -138l283 -453h161v-135h-266l-332 551q-49 -4 -77 -4q-78 0 -156 4v-416h176v-135h-502zM422 684q82 -4 164 -4q160 0 259 71.5t99 200.5q0 125 -92 192.5t-252 67.5h-178v-528z " />
<glyph unicode="S" horiz-adv-x="1124" d="M113 256q0 57 30.5 93t77.5 36t77 -29.5t30 -70.5q0 -47 -33 -90q84 -84 268 -84q135 0 212 63.5t77 173.5q0 94 -70.5 150.5t-210.5 109.5q-102 39 -163.5 70t-124 78t-91 110.5t-28.5 147.5q0 158 114.5 258t301.5 100q164 0 282.5 -80t118.5 -186q0 -55 -30.5 -87 t-76.5 -32q-47 0 -77.5 31t-30.5 74q0 41 29 77q-27 31 -90.5 49.5t-129.5 18.5q-119 0 -189.5 -58.5t-70.5 -152.5q0 -98 73 -153.5t224 -114.5q98 -37 157.5 -68t119 -77t87.5 -108.5t28 -144.5q0 -174 -124 -278.5t-319 -104.5q-190 0 -319 87.5t-129 191.5z" />
<glyph unicode="T" horiz-adv-x="1292" d="M86 1001v347h1120v-347h-145v218h-338v-1084h182v-135h-518v135h182v1084h-338v-218h-145z" />
<glyph unicode="U" horiz-adv-x="1454" d="M68 1212v136h497v-136h-178v-737q0 -178 88 -269t252 -91t253 89t89 267v741h-178v136h495v-136h-169v-741q0 -238 -131.5 -367t-360.5 -129q-231 0 -359 127t-128 363v747h-170z" />
<glyph unicode="V" horiz-adv-x="1425" d="M37 1212v136h455v-136h-154l379 -972l379 972h-162v136h455v-136h-132l-499 -1232h-88l-500 1232h-133z" />
<glyph unicode="W" horiz-adv-x="2027" d="M43 1212v136h487v-136h-170l283 -944l338 918h84l340 -916l274 942h-176v136h486v-136h-156l-377 -1232h-88l-348 927l-350 -927h-88l-383 1232h-156z" />
<glyph unicode="X" horiz-adv-x="1476" d="M82 0v135h141l426 555l-395 522h-148v136h469v-131h-147l313 -439l320 439h-158v131h469v-136h-145l-398 -520l424 -557h142v-135h-465v131h149l-342 473l-348 -473h158v-131h-465z" />
<glyph unicode="Y" horiz-adv-x="1314" d="M39 1212v136h453v-136h-140l307 -542l310 542h-146v136h455v-136h-145l-400 -671v-406h191v-135h-533v135h189v404l-398 673h-143z" />
<glyph unicode="Z" horiz-adv-x="1241" d="M92 0v74l826 1147h-644v-213h-139v340h1000v-74l-826 -1147h703v213h137v-340h-1057z" />
<glyph unicode="[" horiz-adv-x="722" d="M207 -410v1909h469v-131h-324v-1647h324v-131h-469z" />
<glyph unicode="\" horiz-adv-x="952" d="M33 1464l125 56l839 -1893l-125 -55z" />
<glyph unicode="]" horiz-adv-x="722" d="M47 -279h326v1647h-326v131h469v-1909h-469v131z" />
<glyph unicode="^" horiz-adv-x="913" d="M141 809l316 301l315 -301l-65 -78l-250 182l-250 -182z" />
<glyph unicode="_" horiz-adv-x="1091" d="M-12 -166h1116v-137h-1116v137z" />
<glyph unicode="`" horiz-adv-x="856" d="M166 1296q0 39 23.5 63.5t58.5 24.5q41 0 88 -47l246 -258l-37 -49l-309 176q-70 39 -70 90z" />
<glyph unicode="a" horiz-adv-x="1007" d="M92 233q0 119 94.5 192t241.5 73q139 0 252 -41v121q0 78 -39 122q-59 70 -190 70q-78 0 -136 -37q12 -29 13 -51q0 -39 -26 -64.5t-66 -25.5q-39 0 -65 26.5t-26 67.5q0 82 87 142.5t237 60.5q188 0 281 -103q66 -72 65 -188v-475h141v-123h-272v111 q-131 -127 -303 -127q-127 0 -208 69t-81 180zM236 244q0 -66 48 -106t134 -40q141 0 262 121v146q-123 35 -236 34q-100 0 -154 -42.5t-54 -112.5z" />
<glyph unicode="b" horiz-adv-x="1116" d="M27 1376v123h280v-741q135 131 299 131q174 0 295 -127t121 -326q0 -190 -124 -321t-314 -131q-160 0 -287 106l-43 -92h-88v1378h-139zM307 205q125 -98 268 -99q129 0 215.5 91.5t86.5 236.5q0 147 -83 239.5t-212 92.5q-147 0 -275 -131v-430z" />
<glyph unicode="c" horiz-adv-x="968" d="M86 434q0 184 128 319.5t308 135.5q145 0 251 -81t106 -181q0 -49 -32 -84t-79 -35q-37 0 -65.5 26.5t-28.5 69.5q0 45 43 72q-16 39 -72.5 65.5t-124.5 26.5q-109 0 -199 -90t-90 -246q0 -143 92.5 -233t241.5 -90q141 0 291 96l-12 -137q-125 -84 -295 -84 q-199 0 -331 128.5t-132 321.5z" />
<glyph unicode="d" horiz-adv-x="1126" d="M90 430q0 190 120 324.5t312 134.5q160 0 271 -105v592h-164v123h305v-1376h141v-123h-278v123q-125 -139 -293 -139q-176 0 -295 124.5t-119 321.5zM238 425q0 -141 79 -228q82 -90 207 -91q145 0 269 132v428q-119 100 -263 100q-129 0 -210.5 -94.5t-81.5 -246.5z" />
<glyph unicode="e" horiz-adv-x="993" d="M84 434q0 188 117.5 321.5t310.5 133.5q186 0 292.5 -120t106.5 -292q0 -51 -8 -82h-672q14 -141 102.5 -213.5t233.5 -72.5q141 0 307 96l-12 -137q-137 -84 -313 -84q-209 0 -337 124.5t-128 325.5zM233 508h535q-8 119 -75.5 189.5t-188.5 70.5q-102 0 -179.5 -69.5 t-91.5 -190.5z" />
<glyph unicode="f" horiz-adv-x="651" d="M78 748v124h155v261q0 211 93 303q84 80 198 80q72 0 116 -32t44 -85q0 -43 -25.5 -69.5t-62.5 -26.5q-78 0 -107 86q-45 -10 -67 -41q-47 -57 -47 -183v-293h225v-124h-225v-625h170v-123h-453v123h141v625h-155z" />
<glyph unicode="g" horiz-adv-x="1138" d="M90 440q0 182 121 315.5t311 133.5q160 0 279 -113v96h276v-124h-141v-777q0 -158 -80 -254q-104 -127 -332 -127q-199 0 -297 95q-45 45 -45 100q0 45 29 75.5t74 30.5q37 0 61.5 -25.5t24.5 -62.5q0 -33 -19 -57q57 -35 172 -35q150 0 219 86q51 63 52 168v170 q-125 -129 -291 -129q-174 0 -294 123t-120 311zM238 442q0 -137 80.5 -225t207.5 -88q147 0 269 127v410q-113 98 -260 98q-131 0 -214 -91.5t-83 -230.5z" />
<glyph unicode="h" horiz-adv-x="1138" d="M63 0v123h140v1253h-140v123h281v-784q152 174 324 174q150 0 221 -94q57 -76 57 -201v-471h141v-123h-419v123h137v442q0 92 -39 137q-43 55 -135 56q-147 0 -287 -154v-481h137v-123h-418z" />
<glyph unicode="i" horiz-adv-x="593" d="M88 0v123h148v625h-148v124h289v-749h147v-123h-436zM174 1208q0 45 34 80t81 35q45 0 77.5 -34t32.5 -81q0 -45 -33.5 -78.5t-78.5 -33.5t-79 33.5t-34 78.5z" />
<glyph unicode="j" horiz-adv-x="530" d="M-106 -276q0 39 25.5 67.5t66.5 28.5q39 0 63.5 -25.5t24.5 -66.5q0 -2 -1 -10.5t-1 -12.5h12q94 0 129 121q23 74 23 178v744h-168v124h309v-852q0 -147 -39 -247q-70 -182 -258 -183q-86 0 -136 39.5t-50 94.5zM168 1208q0 45 35 80t80 35t77.5 -34t32.5 -81 q0 -45 -32.5 -78.5t-80 -33.5t-80 33.5t-32.5 78.5z" />
<glyph unicode="k" horiz-adv-x="1073" d="M63 0v123h140v1253h-140v123h281v-1061l365 316h-170v118h493v-124h-155l-275 -236l270 -389h160v-123h-241l-291 434l-156 -131v-182h141v-121h-422z" />
<glyph unicode="l" horiz-adv-x="569" d="M68 0v123h147v1253h-147v123h288v-1376h148v-123h-436z" />
<glyph unicode="m" horiz-adv-x="1701" d="M84 0v123h139v625h-139v124h274v-161q143 178 318 178q156 0 217 -105q16 -29 27 -67q168 172 321 172q178 0 238 -127q31 -63 30 -168v-471h140v-123h-416v123h135v444q0 66 -16 111q-33 80 -138 80q-131 0 -276 -150v-485h135v-123h-416v123h140v444q0 66 -17 111 q-33 80 -139 80q-131 0 -276 -154v-481h135v-123h-416z" />
<glyph unicode="n" horiz-adv-x="1153" d="M84 0v123h139v625h-139v124h274v-161q152 178 328 178q162 0 232 -113q43 -74 43 -182v-471h139v-123h-418v123h137v442q0 74 -22 117q-37 76 -146 76q-147 0 -286 -154v-481h137v-123h-418z" />
<glyph unicode="o" horiz-adv-x="1077" d="M90 436q0 188 125 320.5t323.5 132.5t323.5 -131t125 -321.5t-125 -321.5t-323 -131q-201 0 -325 129.5t-124 322.5zM238 436.5q0 -145.5 84 -238t217 -92.5t217 92.5t84 238t-84 237.5t-217 92t-217 -92t-84 -237.5z" />
<glyph unicode="p" horiz-adv-x="1136" d="M63 -279h140v1027h-140v124h277v-124q127 141 293 141q174 0 292.5 -125t118.5 -324q0 -190 -119.5 -323t-310.5 -133q-154 0 -270 100v-363h168v-122h-449v122zM344 205q115 -96 262 -96q127 0 208 93q83 96 83 243q0 140 -79 229q-81 90 -206 90q-143 0 -268 -129v-430 z" />
<glyph unicode="q" horiz-adv-x="1087" d="M90 436q0 190 124 321.5t314 131.5q162 0 287 -109l43 92h88v-1151h141v-122h-456v122h174v394q-131 -131 -299 -131q-174 0 -295 126.5t-121 325.5zM238 436q0 -145 82.5 -236t209.5 -91q152 0 275 127v432q-123 96 -268 96q-129 0 -214 -90.5t-85 -237.5z" />
<glyph unicode="r" horiz-adv-x="778" d="M84 0v123h139v625h-139v124h274v-198q53 94 126 154.5t141 60.5q61 0 96 -34t35 -81q0 -43 -29 -73.5t-70 -30.5q-78 0 -104 73q-49 -14 -102.5 -66t-85.5 -118v-436h163v-123h-444z" />
<glyph unicode="s" horiz-adv-x="894" d="M92 193q0 39 25.5 67.5t62.5 28.5q41 0 67.5 -25.5t26.5 -64.5q0 -20 -14 -54q63 -49 195 -49q92 0 152.5 37t60.5 98q0 55 -50.5 85t-156.5 57q-180 45 -261 98t-81 166q0 102 90 177t242 75q184 0 274 -90q45 -45 45 -101q0 -41 -24.5 -67.5t-61.5 -26.5 q-41 0 -67.5 25.5t-26.5 64.5q0 29 10 49q-47 31 -154 31q-86 0 -138 -38t-52 -89q0 -53 50 -80.5t173 -58.5q162 -39 243 -93.5t81 -168.5q0 -121 -101.5 -191.5t-246.5 -70.5q-96 0 -183.5 27.5t-132.5 72.5q-47 48 -47 109z" />
<glyph unicode="t" horiz-adv-x="681" d="M33 748v124h162v211l139 56v-267h268v-124h-268v-521q0 -41 14 -67q25 -45 103 -45q72 0 163 53l-18 -135q-90 -49 -186 -49q-139 0 -193 102q-23 45 -22 121v541h-162z" />
<glyph unicode="u" horiz-adv-x="1132" d="M53 748v124h281v-567q0 -74 24 -117q39 -74 144 -73q137 0 286 153v480h-143v124h285v-749h139v-123h-276v162q-152 -178 -326 -178q-166 0 -234 116q-41 72 -40 179v469h-140z" />
<glyph unicode="v" horiz-adv-x="1069" d="M14 748v124h406v-120h-139l258 -576l256 576h-144v120h404v-124h-115l-367 -777h-77l-367 777h-115z" />
<glyph unicode="w" horiz-adv-x="1425" d="M14 748v124h404v-120h-139l157 -551l244 573h76l241 -573l158 551h-147v120h403v-124h-131l-238 -785h-77l-252 594l-254 -594h-76l-240 785h-129z" />
<glyph unicode="x" horiz-adv-x="1030" d="M41 0v123h119l278 319l-262 306h-121v124h381v-116h-110l190 -244l193 244h-115v116h379v-124h-121l-260 -302l280 -323h117v-123h-389v115h121l-209 264l-211 -264h127v-115h-387z" />
<glyph unicode="y" horiz-adv-x="1050" d="M12 748v124h408v-120h-137l42 -94l79 -181l90 -205l34 -82l250 562h-143v120h401v-124h-118l-412 -885q-37 -76 -72 -125q-102 -147 -225 -148q-63 0 -107.5 33t-44.5 82q0 41 24.5 65.5t63.5 24.5q68 0 93 -76q53 20 104 99q16 25 66 123l53 108l-328 699h-121z" />
<glyph unicode="z" horiz-adv-x="921" d="M76 0v63l559 693h-399v-170h-125v286h729v-63l-559 -692h442v170h125v-287h-772z" />
<glyph unicode="{" horiz-adv-x="710" d="M106 477v127h39q106 0 176 45t70 119q0 63 -96 160q-86 84 -123 141t-37 137q0 139 121 226.5t348 93.5v-113q-170 -8 -249 -67.5t-79 -139.5q0 -70 125 -200q68 -72 103 -126.5t35 -113.5q0 -74 -58.5 -136.5t-181.5 -88.5q123 -27 181.5 -89.5t58.5 -136.5 q0 -59 -35 -113.5t-103 -125.5q-125 -131 -125 -201q0 -80 79 -139.5t249 -67.5v-112q-227 6 -348 93t-121 226q0 80 37 137.5t123 141.5q96 96 96 159q0 74 -69.5 119t-176.5 45h-39z" />
<glyph unicode="|" horiz-adv-x="552" d="M213 -410v1909h127v-1909h-127z" />
<glyph unicode="}" horiz-adv-x="710" d="M106 -332q170 8 249 67.5t79 139.5q0 70 -125 201q-68 72 -102.5 126t-34.5 113q0 74 58.5 136.5t181.5 89.5q-123 27 -181.5 89t-58.5 136q0 59 35 113.5t102 126.5q125 131 125 200q0 80 -79 139.5t-249 67.5v113q227 -6 347 -93t120 -227q0 -78 -36.5 -136 t-120.5 -142q-98 -94 -99 -160q0 -74 71 -119t177 -45h37v-127h-37q-106 0 -177 -45t-71 -119q0 -66 99 -159q84 -84 120.5 -142.5t36.5 -136.5q0 -139 -119.5 -226t-347.5 -93v112z" />
<glyph unicode="~" horiz-adv-x="884" d="M98 434q8 104 66.5 171t132.5 67q88 0 180 -80q66 -57 105 -57q72 0 94 120l110 -26q-8 -102 -66 -170t-132 -68q-90 0 -178 80q-70 57 -105 57q-74 0 -96 -120z" />
<glyph unicode="&#xa1;" horiz-adv-x="522" d="M143 1243q0 49 34 84t83 35t84 -35t35 -84t-35 -85t-84 -36t-83 36t-34 85zM168 0l53 973h78l53 -973h-184z" />
<glyph unicode="&#xa2;" horiz-adv-x="1028" d="M92 522q0 170 124 301t304 146l19 217l112 -10l-18 -211q125 -20 212 -94t87 -158q0 -45 -32 -80t-77 -35q-37 0 -63.5 24.5t-26.5 67.5q0 45 43 74q-33 63 -158 86l-59 -662h41q160 0 309 97l-12 -133q-119 -82 -307 -82h-39l-25 -287l-112 10l24 297 q-156 43 -251 161.5t-95 270.5zM238 520q0 -109 57 -190.5t160 -118.5l55 641q-113 -16 -192.5 -104.5t-79.5 -227.5z" />
<glyph unicode="&#xa3;" horiz-adv-x="980" d="M-27 -178q0 55 53.5 94t151.5 43q100 111 101 254q0 23 -3 35h-210v117h190l-20 59q-51 150 -52 254q0 158 103.5 268.5t273.5 110.5q135 0 230.5 -65.5t95.5 -155.5q0 -57 -29 -88t-70 -31q-39 0 -64.5 25.5t-25.5 66.5q0 43 27 70q-45 57 -166 57q-111 0 -175.5 -77 t-64.5 -181q0 -109 46 -238q2 -8 11 -34.5t13 -40.5h354v-117h-335v-33q0 -152 -103 -258q96 -8 197 -41q125 -41 200 -41q61 0 97.5 25.5t72.5 89.5l101 -56q-43 -100 -106.5 -144t-159.5 -44q-109 0 -246 53q-106 41 -197 41h-31q-68 -94 -163 -94q-43 0 -70 22.5 t-27 53.5z" />
<glyph unicode="&#xa5;" horiz-adv-x="1024" d="M37 924v116h375v-114h-115l215 -351l213 351h-117v114h373v-116h-127l-211 -330h215v-113h-280l-7 -10v-111h287v-112h-287v-135h164v-113h-450v113h164v135h-289v112h289v111l-7 10h-282v113h213l-211 330h-125z" />
<glyph unicode="&#xa7;" horiz-adv-x="931" d="M117 508q0 127 162 180q-109 55 -109 160q0 84 86 146.5t223 62.5q123 0 210 -48t87 -122q0 -37 -23.5 -62.5t-60.5 -25.5q-39 0 -63.5 23.5t-24.5 60.5q0 20 6 32q-45 33 -135 33q-74 0 -116 -24.5t-42 -63.5q0 -41 51.5 -67.5t166.5 -59.5q139 -39 207.5 -85t68.5 -126 q0 -119 -160 -176q104 -55 105 -158q0 -86 -83 -147t-222 -61q-121 0 -209 47t-88 123q0 37 22.5 61.5t61 24.5t63.5 -23t25 -59q0 -20 -9 -35q43 -33 136 -33q76 0 116.5 24.5t40.5 63.5q0 41 -47 65.5t-172 61.5q-135 37 -204.5 83t-69.5 124zM260 532q0 -43 46 -67.5 t159 -54.5l67 -19q135 41 136 111q0 43 -47.5 68.5t-157.5 56.5l-68 18q-135 -41 -135 -113z" />
<glyph unicode="&#xa8;" horiz-adv-x="950" d="M180 1180q0 49 35 83.5t82 34.5t81 -34.5t34 -83.5q0 -47 -34 -82t-83 -35q-47 0 -81 35t-34 82zM537 1180q0 49 34.5 83.5t81.5 34.5q49 0 82 -34.5t33 -83.5q0 -47 -34 -82t-81 -35q-49 0 -82.5 35t-33.5 82z" />
<glyph unicode="&#xa9;" horiz-adv-x="1239" d="M86 520q0 225 151.5 381t374.5 156q225 0 376 -156t151 -381t-151.5 -380.5t-375.5 -155.5q-225 0 -375.5 155.5t-150.5 380.5zM172 520.5q0 -194.5 126 -329t314.5 -134.5t315.5 135.5t127 327.5q0 195 -127 330t-315.5 135t-314.5 -135t-126 -329.5zM358 526 q0 119 81 197t190 78q88 0 145 -40t57 -87q0 -25 -15 -42.5t-38 -17.5q-20 0 -34.5 15.5t-14.5 36.5q0 16 8 28q-27 35 -108 35q-78 0 -131.5 -57.5t-53.5 -141.5t53.5 -142t139.5 -58q84 0 156 67l47 -53q-76 -88 -205 -88q-121 0 -199 76.5t-78 193.5z" />
<glyph unicode="&#xaa;" horiz-adv-x="704" d="M78 981q0 72 56 115t147 43q80 0 145 -21v64q0 57 -39 86q-35 25 -94 24q-51 0 -74 -16q6 -12 6 -31q0 -25 -16 -41t-41 -16q-27 0 -42 16.5t-15 44.5q0 49 52 86t144 37q88 0 142 -35q72 -47 71 -145v-268h82v-80h-174v63q-78 -74 -178 -73q-76 0 -124 39.5t-48 107.5z M96 610v90h506v-90h-506zM176 989q0 -80 100 -80q84 0 150 66v84q-63 18 -133 18q-55 0 -86 -23.5t-31 -64.5z" />
<glyph unicode="&#xab;" horiz-adv-x="993" d="M61 563l353 344l88 -84l-254 -260l254 -260l-88 -84zM455 563l352 344l88 -84l-254 -260l254 -260l-88 -84z" />
<glyph unicode="&#xad;" horiz-adv-x="624" d="M72 498v143h481v-143h-481z" />
<glyph unicode="&#xae;" horiz-adv-x="802" d="M35 1053q0 154 106.5 260t259.5 106q152 0 259.5 -106.5t107.5 -259.5q0 -152 -107.5 -258.5t-259.5 -106.5q-154 0 -260 106.5t-106 258.5zM109 1053q0 -125 86 -212t206.5 -87t206.5 87t86 212q0 127 -85 214t-207.5 87t-207.5 -87t-85 -214zM262 885v55h39v238h-39v55 h137q61 0 100.5 -26.5t39.5 -78.5q0 -66 -64 -94l49 -94h41v-55h-84l-69 131h-47v-76h43v-55h-146zM365 1071h32q76 0 76 53.5t-76 53.5h-32v-107z" />
<glyph unicode="&#xaf;" horiz-adv-x="937" d="M158 1096v129h622v-129h-622z" />
<glyph unicode="&#xb0;" horiz-adv-x="618" d="M45 1108q0 111 76 188.5t188.5 77.5t186 -77.5t73.5 -188.5t-73.5 -188.5t-186 -77.5t-188.5 77.5t-76 188.5zM145 1108q0 -74 46.5 -124t117.5 -50q70 0 116 50t46 124t-46 123t-116 49q-72 0 -118 -49t-46 -123z" />
<glyph unicode="&#xb1;" horiz-adv-x="851" d="M86 37v125h680v-125h-680zM86 600v127h274v277h129v-277h277v-127h-277v-276h-129v276h-274z" />
<glyph unicode="&#xb2;" horiz-adv-x="722" d="M90 932q39 109 108.5 181.5t163.5 137.5l72 55q25 19 44.5 51t19.5 68q0 51 -42 86t-102 35q-51 0 -89 -19.5t-46 -37.5q35 -14 35 -59q0 -29 -20.5 -48.5t-47.5 -19.5q-76 0 -75 90q0 74 70.5 130t180.5 56q102 0 174 -59t72 -154q0 -55 -28.5 -102t-59.5 -72.5 t-92 -66.5q-160 -102 -209 -213h311v121h93v-209h-502z" />
<glyph unicode="&#xb3;" horiz-adv-x="722" d="M86 1038q0 33 21.5 56.5t52 23.5t49 -19.5t18.5 -50t-20 -44.5q47 -47 143 -48q70 0 117 37t47 92q0 59 -51 96.5t-150 37.5h-45v90h49q80 0 130.5 35.5t50.5 93.5q0 51 -41 79.5t-105 28.5q-84 0 -119 -39q20 -16 20.5 -44.5t-20 -48t-47.5 -19.5q-31 0 -52 22.5 t-21 59.5q0 55 65.5 105t177.5 50q106 0 178 -54t72 -136q0 -63 -48 -111.5t-120 -64.5q76 -14 131.5 -65.5t55.5 -121.5q0 -94 -79 -152.5t-196 -58.5q-109 0 -186.5 49t-77.5 121z" />
<glyph unicode="&#xb4;" horiz-adv-x="856" d="M272 1079l248 258q43 47 88 47q35 0 58.5 -24.5t23.5 -63.5q0 -51 -69 -90l-310 -176z" />
<glyph unicode="&#xb6;" horiz-adv-x="1179" d="M68 715q0 135 105.5 223t262.5 88h664v-125h-162v-776h162v-125h-688v121h163v274q-35 -2 -145 -2q-160 0 -261 87.5t-101 234.5zM696 121h119v784h-119v-784z" />
<glyph unicode="&#xb7;" horiz-adv-x="536" d="M141 520q0 53 37 91t90 38q51 0 88 -38t37 -91t-37 -91t-88 -38q-53 0 -90 38t-37 91z" />
<glyph unicode="&#xb8;" horiz-adv-x="860" d="M236 -350l30 65q92 -39 180 -39q86 0 86 60q0 63 -108 63q-6 0 -20.5 -2t-16.5 -2l-39 33l70 217l61 -10l-6 -133q92 -4 142.5 -47t50.5 -108.5t-53.5 -110t-147.5 -44.5q-118 1 -229 58z" />
<glyph unicode="&#xb9;" horiz-adv-x="722" d="M119 1561l258 67h53v-649h193v-96h-494v96h195v532l-183 -43z" />
<glyph unicode="&#xba;" horiz-adv-x="718" d="M88 1101.5q0 112.5 76 192.5t196.5 80t195.5 -78.5t75 -193.5q0 -113 -76 -192t-195 -79q-121 0 -196.5 79t-75.5 191.5zM117 610v90h485v-90h-485zM188 1102q0 -82 48.5 -135.5t124 -53.5t122.5 53.5t47 135.5q0 84 -47 137t-122.5 53t-124 -53t-48.5 -137z" />
<glyph unicode="&#xbb;" horiz-adv-x="993" d="M100 303l254 260l-254 260l88 84l353 -344l-353 -344zM492 303l253 260l-253 260l88 84l352 -344l-352 -344z" />
<glyph unicode="&#xbc;" horiz-adv-x="1628" d="M96 1253l258 68h54v-649h192v-97h-494v97h195v532l-182 -43zM412 20l403 658l393 655l78 -49l-399 -647l-398 -664zM932 268l393 496l76 -62l-330 -405h229v141l97 41v-178h121v-88h-121v-127h94v-88h-328v86h137v131h-342z" />
<glyph unicode="&#xbd;" horiz-adv-x="1628" d="M90 1253l258 68h53v-649h193v-97h-494v97h195v532l-182 -43zM387 20l404 658l393 655l78 -49l-400 -647l-397 -664zM993 47q39 109 108.5 181.5t164.5 138.5l71 54q25 19 44.5 51t19.5 69q0 51 -42 86t-102 35q-49 0 -88 -19.5t-47 -38.5q35 -14 35 -59 q0 -29 -19.5 -48.5t-47.5 -19.5q-76 0 -76 90q0 74 70.5 130.5t181.5 56.5q102 0 173.5 -59.5t71.5 -153.5q0 -55 -28.5 -102.5t-59 -73t-92.5 -66.5q-160 -102 -209 -213h312v121h92v-209h-502z" />
<glyph unicode="&#xbe;" horiz-adv-x="1628" d="M115 731q0 33 21.5 56.5t52 23.5t49 -19.5t18.5 -50t-20 -45.5q47 -47 143 -47q70 0 117 37t47 92q0 59 -51.5 96t-149.5 37h-45v90h49q80 0 130 36t50 93q0 51 -41 80t-104 29q-84 0 -119 -39q20 -16 20.5 -45t-20 -48.5t-47.5 -19.5q-31 0 -52.5 23t-21.5 59 q0 55 65.5 105.5t178.5 50.5q106 0 178 -54t72 -136q0 -63 -48 -111.5t-120 -65.5q76 -14 131 -65t55 -121q0 -94 -78.5 -152.5t-195.5 -58.5q-109 0 -186.5 49t-77.5 121zM420 20l403 658l394 655l77 -49l-399 -647l-397 -664zM928 268l393 496l76 -62l-330 -405h229v141 l97 41v-178h120v-88h-120v-127h94v-88h-328v86h137v131h-342z" />
<glyph unicode="&#xbf;" horiz-adv-x="913" d="M59 338q0 139 100.5 247.5t276.5 149.5l21 240h86l32 -330q-180 -35 -272 -113.5t-92 -189.5q0 -106 72.5 -171t199.5 -65q160 0 224 89q2 2 5 8t5 8q-63 18 -64 88q0 43 27 71.5t70 28.5q47 0 83.5 -37.5t36.5 -95.5q0 -76 -51 -143q-51 -66 -140 -107t-198 -41 q-190 0 -306 102.5t-116 260.5zM381 1245q0 49 34 84t83 35t83.5 -35t34.5 -84t-34.5 -85t-83.5 -36t-83 36t-34 85z" />
<glyph unicode="&#xc0;" horiz-adv-x="1445" d="M37 0v135h129l403 1079h-153v134h614v-134h-153l403 -1079h129v-135h-451v133h158l-121 332h-551l-120 -332h163v-133h-450zM401 1735q0 39 25 63.5t57 24.5q41 0 88 -47l246 -258l-37 -50l-309 177q-70 39 -70 90zM489 594h461l-229 629z" />
<glyph unicode="&#xc1;" horiz-adv-x="1445" d="M37 0v135h129l403 1079h-153v134h614v-134h-153l403 -1079h129v-135h-451v133h158l-121 332h-551l-120 -332h163v-133h-450zM489 594h461l-229 629zM623 1518l247 258q43 47 88 47q33 0 57.5 -24.5t24.5 -63.5q0 -51 -69 -90l-309 -177z" />
<glyph unicode="&#xc2;" horiz-adv-x="1445" d="M37 0v135h129l403 1079h-153v134h614v-134h-153l403 -1079h129v-135h-451v133h158l-121 332h-551l-120 -332h163v-133h-450zM406 1538l315 301l315 -301l-63 -76l-252 191l-252 -191zM489 594h461l-229 629z" />
<glyph unicode="&#xc3;" horiz-adv-x="1445" d="M37 0v135h129l403 1079h-153v134h614v-134h-153l403 -1079h129v-135h-451v133h158l-121 332h-551l-120 -332h163v-133h-450zM383 1518q8 104 65.5 172.5t129.5 68.5q86 0 182 -80q68 -55 104 -55q72 0 94 123l111 -25q-8 -104 -65.5 -172.5t-131.5 -68.5q-90 0 -180 78 q-70 57 -104 57q-74 0 -94 -123zM489 594h461l-229 629z" />
<glyph unicode="&#xc4;" horiz-adv-x="1445" d="M37 0v135h129l403 1079h-153v134h614v-134h-153l403 -1079h129v-135h-451v133h158l-121 332h-551l-120 -332h163v-133h-450zM426 1618q0 49 35 84t82 35t80.5 -35t33.5 -84q0 -47 -33.5 -82t-82.5 -35q-47 0 -81 35t-34 82zM489 594h461l-229 629zM782 1618q0 49 35 84 t82 35q49 0 82 -35t33 -84q0 -47 -34 -82t-81 -35q-49 0 -83 35t-34 82z" />
<glyph unicode="&#xc5;" horiz-adv-x="1445" d="M37 0v135h129l403 1079h-153v134h149q-70 66 -69.5 153.5t66 151t159.5 63.5t159.5 -63.5t65.5 -151.5q0 -90 -69 -153h153v-134h-153l403 -1079h129v-135h-451v133h158l-121 332h-551l-120 -332h163v-133h-450zM489 594h461l-229 629zM608 1489q0 -51 32 -87t81 -36 t82 36t33 87q0 53 -33 89t-82 36t-81 -36t-32 -89z" />
<glyph unicode="&#xc6;" horiz-adv-x="1816" d="M-10 0v135h162l534 1077h-149v136h1151v-330h-146v196h-508v-462h441v-131h-441v-488h508v197h148v-330h-967v135h158v330h-416l-164 -332h145v-133h-456zM526 594h355v620h-50z" />
<glyph unicode="&#xc7;" horiz-adv-x="1437" d="M115 668q0 305 201.5 504.5t482.5 199.5q207 0 355.5 -103.5t148.5 -228.5q0 -57 -34 -95t-85 -38q-47 0 -80 32t-33 77q0 61 51 82q-33 51 -120 93t-205 42q-227 0 -377 -166t-150 -397q0 -223 151.5 -389t383 -166t418.5 174l90 -109q-205 -205 -508 -205h-6l-2 -73 q92 -4 142 -47t50 -108.5t-53 -110t-148 -44.5q-119 0 -229 58l31 65q92 -39 180 -39q86 0 86 60q0 63 -108 63q-6 0 -20.5 -2t-16.5 -2l-39 33l49 152q-270 29 -438 225.5t-168 462.5z" />
<glyph unicode="&#xc8;" horiz-adv-x="1204" d="M96 0v135h172v1077h-172v136h979v-330h-145v196h-508v-462h440v-131h-440v-488h508v197h147v-330h-981zM272 1735q0 39 23.5 63.5t58.5 24.5q41 0 88 -47l246 -258l-37 -50l-309 177q-70 39 -70 90z" />
<glyph unicode="&#xc9;" horiz-adv-x="1204" d="M96 0v135h172v1077h-172v136h979v-330h-145v196h-508v-462h440v-131h-440v-488h508v197h147v-330h-981zM494 1518l247 258q43 47 88 47q35 0 58.5 -24.5t23.5 -63.5q0 -51 -69 -90l-310 -177z" />
<glyph unicode="&#xca;" horiz-adv-x="1204" d="M96 0v135h172v1077h-172v136h979v-330h-145v196h-508v-462h440v-131h-440v-488h508v197h147v-330h-981zM276 1538l316 301l315 -301l-63 -76l-252 191l-252 -191z" />
<glyph unicode="&#xcb;" horiz-adv-x="1204" d="M96 0v135h172v1077h-172v136h979v-330h-145v196h-508v-462h440v-131h-440v-488h508v197h147v-330h-981zM297 1618q0 49 35 84t82 35t80.5 -35t33.5 -84q0 -47 -33.5 -82t-82.5 -35q-47 0 -81 35t-34 82zM653 1618q0 49 35 84t82 35q49 0 82 -35t33 -84q0 -47 -34 -82 t-81 -35q-49 0 -83 35t-34 82z" />
<glyph unicode="&#xcc;" horiz-adv-x="712" d="M39 1735q0 39 23.5 63.5t58.5 24.5q41 0 88 -47l246 -258l-37 -50l-309 177q-70 39 -70 90zM98 0v135h183v1077h-183v136h516v-136h-182v-1077h182v-135h-516z" />
<glyph unicode="&#xcd;" horiz-adv-x="712" d="M98 0v135h183v1077h-183v136h516v-136h-182v-1077h182v-135h-516zM258 1518l248 258q43 47 88 47q33 0 57.5 -24.5t24.5 -63.5q0 -51 -70 -90l-309 -177z" />
<glyph unicode="&#xce;" horiz-adv-x="712" d="M41 1538l315 301l316 -301l-64 -76l-252 191l-252 -191zM98 0v135h183v1077h-183v136h516v-136h-182v-1077h182v-135h-516z" />
<glyph unicode="&#xcf;" horiz-adv-x="712" d="M61 1618q0 49 35 84t82 35t81 -35t34 -84q0 -47 -34 -82t-83 -35q-47 0 -81 35t-34 82zM98 0v135h183v1077h-183v136h516v-136h-182v-1077h182v-135h-516zM418 1618q0 49 34.5 84t82.5 35q49 0 81.5 -35t32.5 -84q0 -47 -33.5 -82t-80.5 -35q-49 0 -83 35t-34 82z" />
<glyph unicode="&#xd0;" horiz-adv-x="1503" d="M111 0v135h172v492h-150v127h150v458h-172v136h503q350 0 562.5 -180.5t212.5 -479.5q0 -311 -206 -499.5t-567 -188.5h-505zM434 135h193q295 0 450.5 150.5t155.5 404.5q0 242 -168 382t-455 140h-176v-458h307v-127h-307v-492z" />
<glyph unicode="&#xd1;" horiz-adv-x="1564" d="M96 0v135h172v1077h-172v136h305l779 -1026v890h-179v136h490v-136h-166v-1216l-84 -2l-825 1087v-946h176v-135h-496zM440 1518q8 104 65.5 172.5t129.5 68.5q86 0 182 -80q68 -55 105 -55q72 0 94 123l110 -25q-8 -104 -65 -172.5t-131 -68.5q-90 0 -180 78 q-70 57 -105 57q-74 0 -94 -123z" />
<glyph unicode="&#xd2;" d="M115 672q0 299 194.5 499.5t491.5 200.5q291 0 484.5 -200.5t193.5 -495.5q0 -297 -196 -499t-490 -202q-293 0 -485.5 201t-192.5 496zM270 675.5q0 -239.5 148.5 -400t378 -160.5t377 159.5t147.5 397.5q0 240 -147.5 400.5t-377 160.5t-378 -159t-148.5 -398.5z M475 1735q0 39 24.5 63.5t57.5 24.5q41 0 88 -47l246 -258l-37 -50l-309 177q-70 39 -70 90z" />
<glyph unicode="&#xd3;" d="M115 672q0 299 194.5 499.5t491.5 200.5q291 0 484.5 -200.5t193.5 -495.5q0 -297 -196 -499t-490 -202q-293 0 -485.5 201t-192.5 496zM270 675.5q0 -239.5 148.5 -400t378 -160.5t377 159.5t147.5 397.5q0 240 -147.5 400.5t-377 160.5t-378 -159t-148.5 -398.5z M696 1518l248 258q43 47 88 47q33 0 57.5 -24.5t24.5 -63.5q0 -51 -70 -90l-309 -177z" />
<glyph unicode="&#xd4;" d="M115 672q0 299 194.5 499.5t491.5 200.5q291 0 484.5 -200.5t193.5 -495.5q0 -297 -196 -499t-490 -202q-293 0 -485.5 201t-192.5 496zM270 675.5q0 -239.5 148.5 -400t378 -160.5t377 159.5t147.5 397.5q0 240 -147.5 400.5t-377 160.5t-378 -159t-148.5 -398.5z M479 1538l316 301l315 -301l-63 -76l-252 191l-252 -191z" />
<glyph unicode="&#xd5;" d="M115 672q0 299 194.5 499.5t491.5 200.5q291 0 484.5 -200.5t193.5 -495.5q0 -297 -196 -499t-490 -202q-293 0 -485.5 201t-192.5 496zM270 675.5q0 -239.5 148.5 -400t378 -160.5t377 159.5t147.5 397.5q0 240 -147.5 400.5t-377 160.5t-378 -159t-148.5 -398.5z M457 1518q8 104 65.5 172.5t128.5 68.5q86 0 183 -80q68 -55 104 -55q72 0 94 123l111 -25q-8 -104 -65.5 -172.5t-131.5 -68.5q-90 0 -180 78q-70 57 -104 57q-74 0 -95 -123z" />
<glyph unicode="&#xd6;" d="M115 672q0 299 194.5 499.5t491.5 200.5q291 0 484.5 -200.5t193.5 -495.5q0 -297 -196 -499t-490 -202q-293 0 -485.5 201t-192.5 496zM270 675.5q0 -239.5 148.5 -400t378 -160.5t377 159.5t147.5 397.5q0 240 -147.5 400.5t-377 160.5t-378 -159t-148.5 -398.5z M500 1618q0 49 34.5 84t82 35t81 -35t33.5 -84q0 -47 -33.5 -82t-83.5 -35q-47 0 -80.5 35t-33.5 82zM856 1618q0 49 35 84t82 35q49 0 81.5 -35t32.5 -84q0 -47 -33.5 -82t-80.5 -35q-49 0 -83 35t-34 82z" />
<glyph unicode="&#xd7;" horiz-adv-x="851" d="M119 772l92 92l215 -221l213 221l90 -92l-215 -217l215 -221l-90 -92l-215 221l-213 -219l-90 90l215 219z" />
<glyph unicode="&#xd8;" d="M115 672q0 299 194.5 499.5t491.5 200.5q225 0 399 -129l162 189l96 -84l-164 -189q184 -201 185 -483q0 -297 -196 -499t-490 -202q-231 0 -410 134l-164 -193l-96 84l168 193q-176 198 -176 479zM270 676q0 -229 125 -383l717 842q-135 98 -315 98q-229 0 -378 -158.5 t-149 -398.5zM475 217q131 -102 322 -102q229 0 376.5 159.5t147.5 397.5q0 229 -129 385z" />
<glyph unicode="&#xd9;" horiz-adv-x="1454" d="M68 1212v136h497v-136h-178v-737q0 -178 88 -269t252 -91t253 89t89 267v741h-178v136h495v-136h-169v-741q0 -238 -131.5 -367t-360.5 -129q-231 0 -359 127t-128 363v747h-170zM408 1735q0 39 23.5 63.5t57.5 24.5q41 0 89 -47l245 -258l-37 -50l-309 177 q-69 39 -69 90z" />
<glyph unicode="&#xda;" horiz-adv-x="1454" d="M68 1212v136h497v-136h-178v-737q0 -178 88 -269t252 -91t253 89t89 267v741h-178v136h495v-136h-169v-741q0 -238 -131.5 -367t-360.5 -129q-231 0 -359 127t-128 363v747h-170zM627 1518l247 258q43 47 89 47q33 0 57 -24.5t24 -63.5q0 -51 -69 -90l-309 -177z" />
<glyph unicode="&#xdb;" horiz-adv-x="1454" d="M68 1212v136h497v-136h-178v-737q0 -178 88 -269t252 -91t253 89t89 267v741h-178v136h495v-136h-169v-741q0 -238 -131.5 -367t-360.5 -129q-231 0 -359 127t-128 363v747h-170zM410 1538l315 301l315 -301l-63 -76l-252 191l-252 -191z" />
<glyph unicode="&#xdc;" horiz-adv-x="1454" d="M68 1212v136h497v-136h-178v-737q0 -178 88 -269t252 -91t253 89t89 267v741h-178v136h495v-136h-169v-741q0 -238 -131.5 -367t-360.5 -129q-231 0 -359 127t-128 363v747h-170zM432 1618q0 49 35 84t82 35t81 -35t34 -84q0 -47 -34 -82t-83 -35q-47 0 -81 35t-34 82z M788 1618q0 49 35 84t82 35q49 0 82 -35t33 -84q0 -47 -34 -82t-81 -35q-49 0 -83 35t-34 82z" />
<glyph unicode="&#xdd;" horiz-adv-x="1314" d="M39 1212v136h453v-136h-140l307 -542l310 542h-146v136h455v-136h-145l-400 -671v-406h191v-135h-533v135h189v404l-398 673h-143zM557 1518l248 258q43 47 88 47q33 0 57.5 -24.5t24.5 -63.5q0 -51 -70 -90l-309 -177z" />
<glyph unicode="&#xde;" horiz-adv-x="1210" d="M96 0v135h172v1077h-172v136h500v-129h-174v-154q31 2 217 2q209 0 341 -101.5t132 -277.5q0 -186 -129 -289.5t-346 -103.5q-137 0 -215 4v-170h182v-129h-508zM422 428q82 -4 225.5 -4t227 68.5t83.5 191.5t-87 188.5t-224 65.5q-160 0 -225 -4v-506z" />
<glyph unicode="&#xdf;" horiz-adv-x="1142" d="M76 748v124h155v256q0 143 60 240q92 147 291 148q141 0 234 -87.5t93 -220.5q0 -158 -133 -284q-51 -51 -70.5 -84t-19.5 -74t34 -75t118 -81q115 -66 177 -140.5t62 -184.5q0 -139 -92 -220t-231 -81q-113 0 -177.5 51t-64.5 117q0 41 26.5 68.5t63.5 27.5t63.5 -24.5 t26.5 -61.5q0 -14 -14 -49q23 -14 70 -15q86 0 139 48.5t53 134.5q0 70 -42 117.5t-128 97.5q-113 61 -165 117.5t-52 148.5q0 113 115 227q100 100 100 217q0 78 -58.5 131.5t-140.5 53.5q-113 0 -166 -99q-31 -59 -30 -145v-1147h-283v123h141v625h-155z" />
<glyph unicode="&#xe0;" horiz-adv-x="1007" d="M92 233q0 119 94.5 192t241.5 73q139 0 252 -41v121q0 78 -39 122q-59 70 -190 70q-78 0 -136 -37q12 -29 13 -51q0 -39 -26 -64.5t-66 -25.5q-39 0 -65 26.5t-26 67.5q0 82 87 142.5t237 60.5q188 0 281 -103q66 -72 65 -188v-475h141v-123h-272v111 q-131 -127 -303 -127q-127 0 -208 69t-81 180zM172 1296q0 39 24.5 63.5t57.5 24.5q41 0 88 -47l246 -258l-37 -49l-309 176q-70 39 -70 90zM236 244q0 -66 48 -106t134 -40q141 0 262 121v146q-123 35 -236 34q-100 0 -154 -42.5t-54 -112.5z" />
<glyph unicode="&#xe1;" horiz-adv-x="1007" d="M92 233q0 119 94.5 192t241.5 73q139 0 252 -41v121q0 78 -39 122q-59 70 -190 70q-78 0 -136 -37q12 -29 13 -51q0 -39 -26 -64.5t-66 -25.5q-39 0 -65 26.5t-26 67.5q0 82 87 142.5t237 60.5q188 0 281 -103q66 -72 65 -188v-475h141v-123h-272v111 q-131 -127 -303 -127q-127 0 -208 69t-81 180zM236 244q0 -66 48 -106t134 -40q141 0 262 121v146q-123 35 -236 34q-100 0 -154 -42.5t-54 -112.5zM393 1079l248 258q43 47 88 47q33 0 57.5 -24.5t24.5 -63.5q0 -51 -70 -90l-309 -176z" />
<glyph unicode="&#xe2;" horiz-adv-x="1007" d="M92 233q0 119 94.5 192t241.5 73q139 0 252 -41v121q0 78 -39 122q-59 70 -190 70q-78 0 -136 -37q12 -29 13 -51q0 -39 -26 -64.5t-66 -25.5q-39 0 -65 26.5t-26 67.5q0 82 87 142.5t237 60.5q188 0 281 -103q66 -72 65 -188v-475h141v-123h-272v111 q-131 -127 -303 -127q-127 0 -208 69t-81 180zM176 1100l316 301l315 -301l-64 -76l-251 190l-252 -190zM236 244q0 -66 48 -106t134 -40q141 0 262 121v146q-123 35 -236 34q-100 0 -154 -42.5t-54 -112.5z" />
<glyph unicode="&#xe3;" horiz-adv-x="1007" d="M92 233q0 119 94.5 192t241.5 73q139 0 252 -41v121q0 78 -39 122q-59 70 -190 70q-78 0 -136 -37q12 -29 13 -51q0 -39 -26 -64.5t-66 -25.5q-39 0 -65 26.5t-26 67.5q0 82 87 142.5t237 60.5q188 0 281 -103q66 -72 65 -188v-475h141v-123h-272v111 q-131 -127 -303 -127q-127 0 -208 69t-81 180zM154 1079q8 104 65 173t129 69q86 0 182 -80q68 -55 105 -55q72 0 94 123l111 -25q-8 -104 -65.5 -173t-131.5 -69q-90 0 -180 78q-70 57 -105 58q-74 0 -94 -123zM236 244q0 -66 48 -106t134 -40q141 0 262 121v146 q-123 35 -236 34q-100 0 -154 -42.5t-54 -112.5z" />
<glyph unicode="&#xe4;" horiz-adv-x="1007" d="M92 233q0 119 94.5 192t241.5 73q139 0 252 -41v121q0 78 -39 122q-59 70 -190 70q-78 0 -136 -37q12 -29 13 -51q0 -39 -26 -64.5t-66 -25.5q-39 0 -65 26.5t-26 67.5q0 82 87 142.5t237 60.5q188 0 281 -103q66 -72 65 -188v-475h141v-123h-272v111 q-131 -127 -303 -127q-127 0 -208 69t-81 180zM197 1180q0 49 34.5 83.5t81.5 34.5t81 -34.5t34 -83.5q0 -47 -34 -82t-83 -35q-47 0 -80.5 35t-33.5 82zM236 244q0 -66 48 -106t134 -40q141 0 262 121v146q-123 35 -236 34q-100 0 -154 -42.5t-54 -112.5zM553 1180 q0 49 35 83.5t82 34.5q49 0 81.5 -34.5t32.5 -83.5q0 -47 -33.5 -82t-80.5 -35q-49 0 -83 35t-34 82z" />
<glyph unicode="&#xe5;" horiz-adv-x="1007" d="M92 233q0 119 94.5 192t241.5 73q139 0 252 -41v121q0 78 -39 122q-59 70 -190 70q-78 0 -136 -37q12 -29 13 -51q0 -39 -26 -64.5t-66 -25.5q-39 0 -65 26.5t-26 67.5q0 82 87 142.5t237 60.5q188 0 281 -103q66 -72 65 -188v-475h141v-123h-272v111 q-131 -127 -303 -127q-127 0 -208 69t-81 180zM236 244q0 -66 48 -106t134 -40q141 0 262 121v146q-123 35 -236 34q-100 0 -154 -42.5t-54 -112.5zM266 1239q0 96 64.5 161.5t159 65.5t160 -65.5t65.5 -161.5t-65.5 -161.5t-160 -65.5t-159 65.5t-64.5 161.5zM377 1239 q0 -51 31.5 -87t81 -36t82 36t32.5 87t-32.5 87t-82 36t-81 -36t-31.5 -87z" />
<glyph unicode="&#xe6;" horiz-adv-x="1560" d="M92 233q0 119 94.5 192t241.5 73q139 0 252 -41v112q0 78 -41 125q-61 74 -188 74q-82 0 -136 -35q12 -29 13 -51q0 -39 -26 -64.5t-66 -25.5q-39 0 -65 26.5t-26 67.5q0 82 87 142.5t237 60.5q176 0 258 -105q25 -31 37 -65q115 170 323 170q182 0 288 -120t106 -292 q0 -47 -6 -82h-672q31 -287 336 -286q139 0 305 96l-12 -137q-137 -84 -308 -84q-248 0 -368 172q-166 -172 -369 -172q-131 0 -213 68t-82 181zM236 244q0 -66 48 -106t136 -40q150 0 295 131q-25 55 -35 136q-129 35 -236 34q-100 0 -154 -42.5t-54 -112.5zM805 508h534 q-8 119 -76.5 189.5t-189.5 70.5q-102 0 -178 -69.5t-90 -190.5z" />
<glyph unicode="&#xe7;" horiz-adv-x="1024" d="M86 434q0 184 128 319.5t308 135.5q145 0 251 -81t106 -181q0 -49 -32 -84t-79 -35q-37 0 -65.5 26.5t-28.5 69.5q0 45 43 72q-16 39 -72.5 65.5t-124.5 26.5q-109 0 -199 -90t-90 -246q0 -143 92.5 -233t241.5 -90q141 0 291 96l-12 -137q-125 -84 -295 -84h-4l-4 -82 q92 -4 142 -47t50 -108.5t-53 -110t-148 -44.5q-119 0 -229 58l31 65q92 -39 180 -39q86 0 86 60q0 63 -108 63q-6 0 -20.5 -2t-16.5 -2l-39 33l51 164q-168 25 -274.5 147.5t-106.5 294.5z" />
<glyph unicode="&#xe8;" horiz-adv-x="993" d="M84 434q0 188 117.5 321.5t310.5 133.5q186 0 292.5 -120t106.5 -292q0 -51 -8 -82h-672q14 -141 102.5 -213.5t233.5 -72.5q141 0 307 96l-12 -137q-137 -84 -313 -84q-209 0 -337 124.5t-128 325.5zM182 1296q0 39 23.5 63.5t58.5 24.5q41 0 88 -47l246 -258l-37 -49 l-309 176q-70 39 -70 90zM233 508h535q-8 119 -75.5 189.5t-188.5 70.5q-102 0 -179.5 -69.5t-91.5 -190.5z" />
<glyph unicode="&#xe9;" horiz-adv-x="993" d="M84 434q0 188 117.5 321.5t310.5 133.5q186 0 292.5 -120t106.5 -292q0 -51 -8 -82h-672q14 -141 102.5 -213.5t233.5 -72.5q141 0 307 96l-12 -137q-137 -84 -313 -84q-209 0 -337 124.5t-128 325.5zM233 508h535q-8 119 -75.5 189.5t-188.5 70.5q-102 0 -179.5 -69.5 t-91.5 -190.5zM403 1079l248 258q43 47 88 47q35 0 58.5 -24.5t23.5 -63.5q0 -51 -69 -90l-310 -176z" />
<glyph unicode="&#xea;" horiz-adv-x="993" d="M84 434q0 188 117.5 321.5t310.5 133.5q186 0 292.5 -120t106.5 -292q0 -51 -8 -82h-672q14 -141 102.5 -213.5t233.5 -72.5q141 0 307 96l-12 -137q-137 -84 -313 -84q-209 0 -337 124.5t-128 325.5zM186 1100l316 301l315 -301l-63 -76l-252 190l-252 -190zM233 508 h535q-8 119 -75.5 189.5t-188.5 70.5q-102 0 -179.5 -69.5t-91.5 -190.5z" />
<glyph unicode="&#xeb;" horiz-adv-x="993" d="M84 434q0 188 117.5 321.5t310.5 133.5q186 0 292.5 -120t106.5 -292q0 -51 -8 -82h-672q14 -141 102.5 -213.5t233.5 -72.5q141 0 307 96l-12 -137q-137 -84 -313 -84q-209 0 -337 124.5t-128 325.5zM207 1180q0 49 34.5 83.5t82 34.5t81 -34.5t33.5 -83.5 q0 -47 -33.5 -82t-82.5 -35q-47 0 -81 35t-34 82zM233 508h535q-8 119 -75.5 189.5t-188.5 70.5q-102 0 -179.5 -69.5t-91.5 -190.5zM563 1180q0 49 35 83.5t82 34.5q49 0 82 -34.5t33 -83.5q0 -47 -34 -82t-81 -35q-49 0 -83 35t-34 82z" />
<glyph unicode="&#xec;" horiz-adv-x="593" d="M-25 1296q0 39 25 63.5t57 24.5q41 0 88 -47l246 -258l-37 -49l-309 176q-70 39 -70 90zM88 0v123h148v625h-148v124h289v-749h147v-123h-436z" />
<glyph unicode="&#xed;" horiz-adv-x="593" d="M88 0v123h148v625h-148v124h289v-749h147v-123h-436zM197 1079l247 258q43 47 88 47q33 0 57.5 -24.5t24.5 -63.5q0 -51 -69 -90l-309 -176z" />
<glyph unicode="&#xee;" horiz-adv-x="593" d="M-20 1100l315 301l315 -301l-63 -76l-252 190l-252 -190zM88 0v123h148v625h-148v124h289v-749h147v-123h-436z" />
<glyph unicode="&#xef;" horiz-adv-x="593" d="M0 1180q0 49 35 83.5t82 34.5t80.5 -34.5t33.5 -83.5q0 -47 -33.5 -82t-82.5 -35q-47 0 -81 35t-34 82zM88 0v123h148v625h-148v124h289v-749h147v-123h-436zM356 1180q0 49 35 83.5t82 34.5q49 0 82 -34.5t33 -83.5q0 -47 -34 -82t-81 -35q-49 0 -83 35t-34 82z" />
<glyph unicode="&#xf0;" horiz-adv-x="1081" d="M90 413.5q0 182.5 126 307.5t323 125q92 0 177 -43t136 -115q-31 252 -223 473l-238 -213l-78 92l232 207q-121 111 -232 135q-4 -35 -30.5 -59.5t-65.5 -24.5t-67.5 29t-28.5 76t39 78.5t98 31.5q74 0 166 -40q115 -53 217 -148l201 176l78 -90l-197 -174 q268 -307 268 -727q0 -272 -145 -414q-119 -113 -305 -112q-199 0 -325 123.5t-126 306zM231 414q0 -135 87.5 -221.5t222.5 -86.5q129 0 215 87q96 96 96 235q0 125 -88 210t-223 85t-222.5 -87t-87.5 -222z" />
<glyph unicode="&#xf1;" horiz-adv-x="1153" d="M84 0v123h139v625h-139v124h274v-161q152 178 328 178q162 0 232 -113q43 -74 43 -182v-471h139v-123h-418v123h137v442q0 74 -22 117q-37 76 -146 76q-147 0 -286 -154v-481h137v-123h-418zM252 1079q8 104 65.5 173t128.5 69q86 0 183 -80q68 -55 104 -55q72 0 94 123 l111 -25q-8 -104 -65.5 -173t-131.5 -69q-90 0 -180 78q-70 57 -104 58q-74 0 -95 -123z" />
<glyph unicode="&#xf2;" horiz-adv-x="1077" d="M90 436q0 188 125 320.5t323.5 132.5t323.5 -131t125 -321.5t-125 -321.5t-323 -131q-201 0 -325 129.5t-124 322.5zM219 1296q0 39 23.5 63.5t58.5 24.5q41 0 88 -47l246 -258l-37 -49l-309 176q-70 39 -70 90zM238 436.5q0 -145.5 84 -238t217 -92.5t217 92.5t84 238 t-84 237.5t-217 92t-217 -92t-84 -237.5z" />
<glyph unicode="&#xf3;" horiz-adv-x="1077" d="M90 436q0 188 125 320.5t323.5 132.5t323.5 -131t125 -321.5t-125 -321.5t-323 -131q-201 0 -325 129.5t-124 322.5zM238 436.5q0 -145.5 84 -238t217 -92.5t217 92.5t84 238t-84 237.5t-217 92t-217 -92t-84 -237.5zM438 1079l248 258q43 47 88 47q33 0 57.5 -24.5 t24.5 -63.5q0 -51 -70 -90l-309 -176z" />
<glyph unicode="&#xf4;" horiz-adv-x="1077" d="M90 436q0 188 125 320.5t323.5 132.5t323.5 -131t125 -321.5t-125 -321.5t-323 -131q-201 0 -325 129.5t-124 322.5zM221 1100l316 301l315 -301l-64 -76l-251 190l-252 -190zM238 436.5q0 -145.5 84 -238t217 -92.5t217 92.5t84 238t-84 237.5t-217 92t-217 -92 t-84 -237.5z" />
<glyph unicode="&#xf5;" horiz-adv-x="1077" d="M90 436q0 188 125 320.5t323.5 132.5t323.5 -131t125 -321.5t-125 -321.5t-323 -131q-201 0 -325 129.5t-124 322.5zM199 1079q8 104 65.5 173t128.5 69q86 0 182 -80q68 -55 105 -55q72 0 94 123l111 -25q-8 -104 -65.5 -173t-131.5 -69q-90 0 -180 78q-70 57 -105 58 q-74 0 -94 -123zM238 436.5q0 -145.5 84 -238t217 -92.5t217 92.5t84 238t-84 237.5t-217 92t-217 -92t-84 -237.5z" />
<glyph unicode="&#xf6;" horiz-adv-x="1077" d="M90 436q0 188 125 320.5t323.5 132.5t323.5 -131t125 -321.5t-125 -321.5t-323 -131q-201 0 -325 129.5t-124 322.5zM238 436.5q0 -145.5 84 -238t217 -92.5t217 92.5t84 238t-84 237.5t-217 92t-217 -92t-84 -237.5zM244 1180q0 49 34.5 83.5t82 34.5t81 -34.5 t33.5 -83.5q0 -47 -33.5 -82t-83.5 -35q-47 0 -80.5 35t-33.5 82zM600 1180q0 49 35 83.5t82 34.5q49 0 81.5 -34.5t32.5 -83.5q0 -47 -33.5 -82t-80.5 -35q-49 0 -83 35t-34 82z" />
<glyph unicode="&#xf7;" horiz-adv-x="851" d="M86 492v124h680v-124h-680zM326 272q0 41 29.5 72t70.5 31t70.5 -31t29.5 -72t-29.5 -70.5t-70.5 -29.5t-70.5 29.5t-29.5 70.5zM326 836q0 41 29.5 71.5t70.5 30.5t70.5 -30.5t29.5 -71.5t-29.5 -72t-70.5 -31t-70.5 31t-29.5 72z" />
<glyph unicode="&#xf8;" horiz-adv-x="1077" d="M90 436q0 188 125 320.5t324 132.5q137 0 249 -76l103 121l92 -78l-104 -123q109 -127 108 -297q0 -190 -125 -321t-323 -131q-135 0 -244 69l-102 -119l-93 78l103 121q-113 129 -113 303zM238 436q0 -129 59 -213l414 490q-72 53 -172 53q-133 0 -217 -92.5t-84 -237.5 zM371 152q72 -45 168 -46q133 0 217 92.5t84 237.5q0 123 -58 205z" />
<glyph unicode="&#xf9;" horiz-adv-x="1132" d="M53 748v124h281v-567q0 -74 24 -117q39 -74 144 -73q137 0 286 153v480h-143v124h285v-749h139v-123h-276v162q-152 -178 -326 -178q-166 0 -234 116q-41 72 -40 179v469h-140zM231 1296q0 39 24 63.5t58 24.5q41 0 88 -47l246 -258l-37 -49l-309 176q-70 39 -70 90z" />
<glyph unicode="&#xfa;" horiz-adv-x="1132" d="M53 748v124h281v-567q0 -74 24 -117q39 -74 144 -73q137 0 286 153v480h-143v124h285v-749h139v-123h-276v162q-152 -178 -326 -178q-166 0 -234 116q-41 72 -40 179v469h-140zM451 1079l247 258q43 47 88 47q33 0 57.5 -24.5t24.5 -63.5q0 -51 -69 -90l-310 -176z" />
<glyph unicode="&#xfb;" horiz-adv-x="1132" d="M53 748v124h281v-567q0 -74 24 -117q39 -74 144 -73q137 0 286 153v480h-143v124h285v-749h139v-123h-276v162q-152 -178 -326 -178q-166 0 -234 116q-41 72 -40 179v469h-140zM233 1100l316 301l315 -301l-63 -76l-252 190l-252 -190z" />
<glyph unicode="&#xfc;" horiz-adv-x="1132" d="M53 748v124h281v-567q0 -74 24 -117q39 -74 144 -73q137 0 286 153v480h-143v124h285v-749h139v-123h-276v162q-152 -178 -326 -178q-166 0 -234 116q-41 72 -40 179v469h-140zM254 1180q0 49 35 83.5t82 34.5t80.5 -34.5t33.5 -83.5q0 -47 -33.5 -82t-82.5 -35 q-47 0 -81 35t-34 82zM610 1180q0 49 35 83.5t82 34.5q49 0 82 -34.5t33 -83.5q0 -47 -34 -82t-81 -35q-49 0 -83 35t-34 82z" />
<glyph unicode="&#xfd;" horiz-adv-x="1050" d="M12 748v124h408v-120h-137l42 -94l79 -181l90 -205l34 -82l250 562h-143v120h401v-124h-118l-412 -885q-37 -76 -72 -125q-102 -147 -225 -148q-63 0 -107.5 33t-44.5 82q0 41 24.5 65.5t63.5 24.5q68 0 93 -76q53 20 104 99q16 25 66 123l53 108l-328 699h-121z M426 1079l248 258q43 47 88 47q33 0 57.5 -24.5t24.5 -63.5q0 -51 -70 -90l-309 -176z" />
<glyph unicode="&#xfe;" horiz-adv-x="1077" d="M0 1376v123h283v-743q127 131 288 131q176 0 294 -124t118 -323q0 -190 -120 -323t-310 -133q-147 0 -270 96v-359h168v-122h-449v122h139v1655h-141zM283 207q117 -98 262 -98q127 0 208 93t83 236q2 145 -79 234.5t-206 89.5q-145 0 -268 -127v-428z" />
<glyph unicode="&#xff;" horiz-adv-x="1050" d="M12 748v124h408v-120h-137l42 -94l79 -181l90 -205l34 -82l250 562h-143v120h401v-124h-118l-412 -885q-37 -76 -72 -125q-102 -147 -225 -148q-63 0 -107.5 33t-44.5 82q0 41 24.5 65.5t63.5 24.5q68 0 93 -76q53 20 104 99q16 25 66 123l53 108l-328 699h-121z M229 1180q0 49 35 83.5t82 34.5t81 -34.5t34 -83.5q0 -47 -34 -82t-83 -35q-47 0 -81 35t-34 82zM586 1180q0 49 34.5 83.5t81.5 34.5q49 0 82 -34.5t33 -83.5q0 -47 -33.5 -82t-81.5 -35q-49 0 -82.5 35t-33.5 82z" />
<glyph unicode="&#x152;" horiz-adv-x="1906" d="M115 659q0 309 201.5 499t541.5 190h920v-330h-146v196h-508v-462h441v-131h-441v-488h508v197h146v-330h-918q-330 0 -537.5 181t-207.5 478zM270 657q0 -240 164 -381t430 -141h107v1077h-123q-274 0 -426 -151.5t-152 -403.5z" />
<glyph unicode="&#x153;" horiz-adv-x="1726" d="M90 436q0 188 125 320.5t320 132.5q127 0 224 -60.5t146 -160.5q51 100 143.5 160.5t211.5 60.5q184 0 289.5 -120t105.5 -292q0 -47 -6 -82h-672q14 -141 102 -213.5t234 -72.5q139 0 305 96l-12 -137q-137 -84 -310 -84q-135 0 -237.5 59t-153.5 160 q-51 -100 -147 -159.5t-223 -59.5q-197 0 -321 129.5t-124 322.5zM238 436.5q0 -145.5 84 -238t217 -92.5t217 92.5t84 238t-84 237.5t-217 92t-217 -92t-84 -237.5zM979 508h534q-8 119 -76.5 189.5t-187.5 70.5q-102 0 -179 -69.5t-91 -190.5z" />
<glyph unicode="&#x178;" horiz-adv-x="1314" d="M39 1212v136h453v-136h-140l307 -542l310 542h-146v136h455v-136h-145l-400 -671v-406h191v-135h-533v135h189v404l-398 673h-143zM360 1618q0 49 35 84t82 35t81 -35t34 -84q0 -47 -34 -82t-83 -35q-47 0 -81 35t-34 82zM717 1618q0 49 34.5 84t82.5 35q49 0 81.5 -35 t32.5 -84q0 -47 -33.5 -82t-80.5 -35q-49 0 -83 35t-34 82z" />
<glyph unicode="&#x2c6;" horiz-adv-x="950" d="M160 1100l315 301l316 -301l-64 -76l-252 190l-252 -190z" />
<glyph unicode="&#x2dc;" horiz-adv-x="976" d="M145 1079q8 104 65.5 173t129.5 69q86 0 182 -80q68 -55 105 -55q72 0 94 123l110 -25q-8 -104 -65 -173t-131 -69q-90 0 -180 78q-70 57 -105 58q-74 0 -94 -123z" />
<glyph unicode="&#x2013;" horiz-adv-x="960" d="M45 500v139h870v-139h-870z" />
<glyph unicode="&#x2014;" horiz-adv-x="1544" d="M45 500v139h1454v-139h-1454z" />
<glyph unicode="&#x2018;" horiz-adv-x="423" d="M66 1004q0 98 72.5 210.5t223.5 192.5l37 -55q-92 -68 -136 -141.5t-46 -127.5q43 -8 75 -42.5t32 -77.5q0 -49 -37 -85t-86 -36q-57 0 -96 43t-39 119z" />
<glyph unicode="&#x2019;" horiz-adv-x="423" d="M27 874q90 66 134 141t48 128q-45 8 -77 43t-32 78q0 49 38 84.5t87 35.5q57 0 95 -42t38 -117q0 -98 -72.5 -212t-222.5 -194z" />
<glyph unicode="&#x201a;" horiz-adv-x="428" d="M4 -254q94 70 139 137.5t47 114.5q-43 8 -73.5 43t-30.5 80q0 49 37 84t86 35q57 0 95 -42t38 -118q0 -96 -71.5 -201.5t-227.5 -187.5z" />
<glyph unicode="&#x201c;" horiz-adv-x="819" d="M66 1004q0 98 72.5 210.5t223.5 192.5l37 -55q-92 -68 -136 -141.5t-46 -127.5q43 -8 75 -42.5t32 -77.5q0 -49 -37 -85t-86 -36q-57 0 -96 43t-39 119zM459 1004q0 98 72.5 210.5t224.5 192.5l37 -55q-92 -68 -136.5 -141.5t-46.5 -127.5q43 -8 75 -42.5t32 -77.5 q0 -49 -37 -85t-86 -36q-57 0 -96 43t-39 119z" />
<glyph unicode="&#x201d;" horiz-adv-x="819" d="M27 874q90 66 134 141t48 128q-45 8 -77 43t-32 78q0 49 38 84.5t87 35.5q57 0 95 -42t38 -117q0 -98 -72.5 -212t-222.5 -194zM420 874q92 68 136 142t46 127q-43 8 -74.5 43t-31.5 78q0 49 36.5 84.5t85.5 35.5q57 0 96.5 -42t39.5 -117q0 -100 -73 -213t-224 -193z " />
<glyph unicode="&#x201e;" horiz-adv-x="823" d="M8 -250q174 131 182 248q-43 8 -73.5 42t-30.5 77q0 47 36 81.5t85 34.5q55 0 92 -41.5t37 -113.5q0 -217 -291 -381zM403 -250q174 131 183 248q-43 8 -74 42t-31 77q0 47 36 81.5t85 34.5q55 0 92 -41.5t37 -113.5q0 -217 -291 -381z" />
<glyph unicode="&#x2022;" horiz-adv-x="591" d="M96 555q0 86 57.5 146.5t141.5 60.5t141.5 -60.5t57.5 -146.5q0 -84 -57.5 -143.5t-141.5 -59.5t-141.5 59.5t-57.5 143.5z" />
<glyph unicode="&#x2026;" horiz-adv-x="1269" d="M92 108.5q0 53.5 36 89t87 35.5t87 -35.5t36 -89t-36 -89t-87 -35.5t-87 35.5t-36 89zM512 108.5q0 53.5 36 89t87 35.5t87 -35.5t36 -89t-36 -89t-87 -35.5t-87 35.5t-36 89zM934 108.5q0 53.5 35 89t86 35.5t87 -35.5t36 -89t-36 -89t-87 -35.5t-86 35.5t-35 89z" />
<glyph unicode="&#x2039;" horiz-adv-x="602" d="M61 563l353 344l88 -84l-254 -260l254 -260l-88 -84z" />
<glyph unicode="&#x203a;" horiz-adv-x="602" d="M100 303l254 260l-254 260l88 84l353 -344l-353 -344z" />
<glyph unicode="&#x20ac;" horiz-adv-x="1218" d="M86 332v112h125q-4 23 -4 72t4 74h-125v112h150q55 160 191 257.5t304 97.5q164 0 277.5 -83t113.5 -183q0 -49 -31.5 -82t-76.5 -33q-39 0 -66.5 26.5t-27.5 67.5q0 55 36 74q-20 35 -81.5 61.5t-145.5 26.5q-119 0 -211 -63.5t-139 -168.5h375v-110h-406q-6 -37 -6 -72 q0 -37 6 -74h406v-110h-373q47 -102 140 -165t214 -63q172 0 307 136l84 -97q-158 -164 -391 -163q-182 0 -314 96t-185 254h-150z" />
<glyph unicode="&#x2122;" horiz-adv-x="1255" d="M27 1194v154h479v-154h-80v80h-117v-356h74v-78h-236v78h76v356h-119v-80h-77zM563 840v78h72l16 352h-73v78h178l139 -310l137 310h180v-78h-75l16 -352h72v-78h-217v78h63l-12 309l-146 -318h-41l-147 318l-10 -309h63v-78h-215z" />
<glyph unicode="&#xe000;" horiz-adv-x="870" d="M0 870h870v-870h-870v870z" />
<glyph unicode="&#xfb01;" horiz-adv-x="1167" d="M76 748v124h155v234q0 221 111 326q90 84 219 84q92 0 147.5 -44.5t55.5 -103.5q0 -43 -28.5 -72.5t-69.5 -29.5q-45 0 -74 35.5t-25 82.5l4 2q-10 2 -30 3q-66 0 -111 -58q-57 -68 -57 -192v-267h577v-749h148v-123h-430v123h141v625h-436v-625h164v-123h-447v123h141 v625h-155z" />
<glyph unicode="&#xfb02;" horiz-adv-x="1173" d="M76 748v124h155v242q0 193 103 299q102 102 268 103q143 0 234 -84l36 75h89v-1384h147v-123h-434v123h145v625h-446v-625h166v-123h-449v123h141v625h-155zM373 872h446v250v25q-35 8 -57.5 35.5t-22.5 64.5t23 70l-8 10q-63 63 -158 64q-98 0 -156 -62 q-68 -68 -67 -203v-254z" />
<glyph unicode="&#xfb03;" horiz-adv-x="1755" d="M76 748v124h155v230q0 184 93 278q88 94 233 95q70 0 125 -23q98 -41 98 -129q0 -41 -23.5 -65.5t-64.5 -24.5q-43 0 -71.5 32.5t-28.5 80.5q-18 6 -37 6q-90 0 -135 -62q-47 -63 -47 -178v-240h446v234q0 221 111 326q90 84 219 84q92 0 147.5 -44.5t55.5 -103.5 q0 -43 -29 -72.5t-70 -29.5q-47 0 -74.5 35.5t-23.5 82.5q-20 4 -29 5q-55 0 -102 -50q-63 -68 -63 -200v-267h577v-749h148v-123h-431v123h142v625h-436v-625h163v-123h-442v123h137v625h-446v-625h166v-123h-449v123h141v625h-155z" />
<glyph unicode="&#xfb04;" horiz-adv-x="1761" d="M76 748v124h155v230q0 184 93 278q88 94 233 95q70 0 125 -23q98 -41 98 -129q0 -41 -23.5 -65.5t-64.5 -24.5q-43 0 -71.5 32.5t-28.5 82.5q-25 4 -37 4q-90 0 -135 -62q-47 -63 -47 -178v-240h446v242q0 193 103 299q98 102 268 103q143 0 233 -84l37 75h88v-1384h148 v-123h-434v123h145v625h-446v-625h165v-123h-444v123h137v625h-446v-625h166v-123h-449v123h141v625h-155zM961 872h446v250v25q-35 6 -57.5 34.5t-22.5 65.5t23 70l-9 10q-63 63 -157 64q-96 0 -158 -62q-66 -70 -65 -203v-254z" />
</font>
</defs>
</svg>
